<svg xmlns="http://www.w3.org/2000/svg" viewBox="0 0 566.296 500">
  <defs>
    <style>
      .cls-1 {
        fill: #fa968c;
      }

      .cls-2 {
        fill: #a5a0aa;
      }

      .cls-3 {
        fill: #fab9af;
      }

      .cls-4 {
        fill: #f57a2f;
      }

      .cls-5 {
        fill: #0091c8;
      }

      .cls-6 {
        fill: #ff965a;
      }

      .cls-7 {
        fill: #f07d4b;
      }

      .cls-8 {
        fill: #ff8c46;
      }

      .cls-9 {
        fill: #ffbe82;
      }

      .cls-10 {
        fill: #828291;
      }

      .cls-11 {
        fill: #757582;
      }

      .cls-12 {
        fill: #41378c;
      }

      .cls-13, .cls-14, .cls-17 {
        fill: none;
        stroke-miterlimit: 10;
      }

      .cls-13 {
        stroke: #5046af;
      }

      .cls-13, .cls-14 {
        stroke-linecap: round;
        stroke-width: 2.067px;
      }

      .cls-14 {
        stroke: #9f9fff;
      }

      .cls-15 {
        fill: #5046af;
      }

      .cls-16 {
        fill: #fff;
      }

      .cls-17 {
        stroke: #ddd;
        stroke-width: 0.988px;
      }

      .cls-18 {
        fill: #a5c8cd;
      }

      .cls-19 {
        fill: #b4d7dc;
      }

      .cls-20 {
        fill: #823264;
      }

      .cls-21 {
        fill: #ffaa50;
      }

      .cls-22 {
        fill: #9b14aa;
      }

      .cls-23 {
        fill: #05cdff;
      }

      .cls-24 {
        fill: #fac855;
      }

      .cls-25 {
        fill: #39ae96;
      }

      .cls-26 {
        fill: #1c9585;
      }

      .cls-27 {
        fill: #46738c;
      }

      .cls-28 {
        fill: #41b4e6;
      }

      .cls-29 {
        fill: #695a6e;
      }

      .cls-30 {
        fill: #614c69;
      }

      .cls-31 {
        fill: #aac85a;
      }

      .cls-32 {
        fill: #82be50;
      }

      .cls-33 {
        fill: #cd5014;
      }

      .cls-34 {
        fill: #fa735f;
      }

      .cls-35 {
        fill: #c8e6eb;
      }

      .cls-36 {
        fill: #41a0d7;
      }
    </style>
  </defs>
  <g id="Vector" transform="translate(0 0.141)">
    <g id="Group_122" data-name="Group 122" transform="translate(0 -0.14)">
      <g id="Group_112" data-name="Group 112" transform="translate(322.006)">
        <path id="Path_113" data-name="Path 113" class="cls-1" d="M265.433,15.38c.16-2.233,3.988-6.7,3.35-7.338-.479-.479-1.914.957-2.712,1.755-.16.16-.16.16-.319.16s-.16-.16-.16-.319c-.16-2.233-.8-8.3-1.276-8.455-.638,0-.957,3.828-.957,5.1H263.2c-.479-1.436-2.074-5.9-2.712-5.264-.638.479.319,4.786.8,6.381v.16h-.16c-.8-1.436-3.031-5.264-3.669-4.786s1.117,4.467,1.755,5.9v.16h-.16c-.957-1.117-3.509-3.828-3.35-3.031,0,.957,4.307,9.252,5.743,10.688C262.721,17.932,265.433,15.38,265.433,15.38Z" transform="translate(-169.816 0.796)"/>
        <path id="Path_114" data-name="Path 114" class="cls-1" d="M302.411,38.371c-3.031,6.54-7.178,14.038-12.283,19.142-10.05,9.89-22.811,7.338-27.278-15.792-.8-3.509-1.276-7.019-1.755-10.369-.957-6.859-1.276-13.878-1.6-20.738A1.81,1.81,0,0,1,261.255,8.7a1.915,1.915,0,0,1,1.914,1.436h0c1.436,6.7,2.712,13.4,4.467,19.78.957,3.19,1.755,6.381,2.871,9.571.957,2.871,4.786,11.964,7.657,12.921.16,0,.16.16.319,0h.16l.16-.16c.16-.16.319-.16.638-.479a14.71,14.71,0,0,0,2.393-2.233,31.429,31.429,0,0,0,4.626-7.5c2.393-4.786,3.828-8.136,3.828-8.136,3.031-8.136,15.314-4.307,12.443,3.988C302.57,38.052,302.411,38.211,302.411,38.371Z" transform="translate(-167.552 5.402)"/>
        <path id="Path_115" data-name="Path 115" class="cls-2" d="M273.9,39.583h0c1.6-2.233,2.871-4.626,4.307-7.019,1.276-2.233,2.552-4.945,3.509-7.019v-.16c0-.16.16-.319.319-.479a6.6,6.6,0,0,1,11.645,6.221c-1.6,3.031-3.19,5.424-4.945,8.136a53.191,53.191,0,0,1-3.828,5.1C283.95,43.252,276.293,40.54,273.9,39.583Z" transform="translate(-158.981 12.964)"/>
        <path id="Path_116" data-name="Path 116" class="cls-3" d="M279.023,85.467c5.743,6.54,38.923,9.412,38.923,9.412,2.393-2.871-1.117-15.792-1.914-28.873-.957-14.2-1.436-29.83-1.755-38.285A6.473,6.473,0,0,0,307.9,21.5H286.84a6.372,6.372,0,0,0-6.221,5.743c-.479,6.7-1.436,18.345-2.393,29.671C277.109,68.4,274.078,79.725,279.023,85.467Z" transform="translate(-157.564 13.021)"/>
        <path id="Path_117" data-name="Path 117" class="cls-1" d="M297.534,133.7v13.081l1.117,6.381a1.769,1.769,0,0,1-1.755,2.074c-5.264.16-18.983.479-19.3,0-1.755-2.712,6.062-3.828,11.8-6.062s1.755-23.768,1.755-23.768Z" transform="translate(-156.932 74.862)"/>
        <path id="Path_118" data-name="Path 118" class="cls-4" d="M289.3,140.3h0a14.82,14.82,0,0,0,4.626.8,10.475,10.475,0,0,0,3.988-.638l.638,3.828a1.769,1.769,0,0,1-1.755,2.074c-5.264.16-18.983.479-19.3,0C275.739,143.65,283.556,142.533,289.3,140.3Z" transform="translate(-156.992 83.731)"/>
        <path id="Path_119" data-name="Path 119" class="cls-5" d="M278,70.671c-.16,9.093,3.35,66.52,10.369,66.679s14.835-57.108,15.154-66.2c.16-9.093-5.264-16.59-12.443-16.75C284.064,54.4,278.161,61.578,278,70.671Z" transform="translate(-156.543 32.603)"/>
        <path id="Path_120" data-name="Path 120" class="cls-6" d="M298.1,125.387c.638,4.945.8,37.009-.319,53.12H291.4c-3.509-15.792-7.178-46.261-7.816-51.206v-.16c-3.828-16.909-5.743-49.93-5.583-56.63.16-9.093,6.062-16.271,13.081-16.112s12.6,7.657,12.443,16.75C303.367,76.893,297.784,122.995,298.1,125.387Z" transform="translate(-156.544 32.602)"/>
        <path id="Path_121" data-name="Path 121" class="cls-7" d="M297.042,150.751a29.974,29.974,0,0,0-1.117-10.05c-2.552-9.571-2.552-19.621-1.6-29.511a12.9,12.9,0,0,0,.16-2.552c.638-12.921-6.381-24.726-16.431-32.063-.16-2.712-.16-4.786-.16-6.062.16-9.093,6.062-16.271,13.081-16.112s12.6,7.657,12.443,16.75c-.16,5.743-5.743,51.844-5.424,54.237.638,4.945.8,37.009-.319,53.12H291.3c-.479-1.914-.8-3.988-1.276-6.062A40.787,40.787,0,0,0,297.042,150.751Z" transform="translate(-156.6 32.602)"/>
        <path id="Path_122" data-name="Path 122" class="cls-1" d="M307.134,133.7v13.081l1.117,6.381a1.769,1.769,0,0,1-1.755,2.074c-5.264.16-18.983.479-19.3,0-1.755-2.712,6.062-3.828,11.8-6.062s1.755-23.768,1.755-23.768Z" transform="translate(-151.218 74.862)"/>
        <path id="Path_123" data-name="Path 123" class="cls-8" d="M298.883,140.3h0a14.821,14.821,0,0,0,4.626.8,10.475,10.475,0,0,0,3.988-.638l.638,3.828a1.769,1.769,0,0,1-1.755,2.074c-5.264.16-18.983.479-19.3,0C285.483,143.65,293.3,142.533,298.883,140.3Z" transform="translate(-151.263 83.731)"/>
        <path id="Path_124" data-name="Path 124" class="cls-5" d="M287.6,70.612c-.16,9.093,3.35,66.52,10.369,66.679s13.4-57.268,13.559-66.36S307.7,54.66,300.683,54.5,287.921,61.52,287.6,70.612Z" transform="translate(-150.829 32.661)"/>
        <path id="Path_125" data-name="Path 125" class="cls-9" d="M308.295,125.387c.638,4.945.8,37.009-.319,53.12h-6.381c-3.509-15.792-7.178-46.261-7.816-51.206v-.16c-3.828-16.909-7.178-50.089-7.178-56.789.16-9.093,7.657-16.112,14.676-15.952s11.007,7.5,10.847,16.431C312.123,76.734,307.976,122.995,308.295,125.387Z" transform="translate(-151.422 32.602)"/>
        <path id="Path_126" data-name="Path 126" class="cls-10" d="M286.525,21.5h3.35a8.4,8.4,0,0,0,15.314,0h3.19a5.962,5.962,0,0,1,5.9,5.743c.16,8.3.8,24.247,1.755,38.763.8,13.081,4.467,25.2,1.914,28.873,0,0-33.18-2.712-38.923-9.412-4.945-5.743-1.914-17.069-.957-28.554s1.914-23.29,2.552-29.99A5.8,5.8,0,0,1,286.525,21.5Z" transform="translate(-157.569 13.021)"/>
        <path id="Path_127" data-name="Path 127" class="cls-11" d="M310.378,40.323A34.769,34.769,0,0,0,305.752,21.5h2.393a5.962,5.962,0,0,1,5.9,5.743c.16,8.3.8,24.247,1.755,38.763.8,13.081,4.467,25.2,1.914,28.873,0,0-33.18-2.712-38.923-9.412a10.507,10.507,0,0,1-2.393-5.583C295.7,76.853,309.421,59.944,310.378,40.323Z" transform="translate(-157.493 13.021)"/>
        <path id="Path_128" data-name="Path 128" class="cls-12" d="M290.2,21.7l.319.16a5.729,5.729,0,0,0,6.7-4.307l1.755-7.976-5.9-1.276Z" transform="translate(-149.279 5.164)"/>
        <g id="Group_108" data-name="Group 108" transform="translate(135.657 23.514)">
          <path id="Path_129" data-name="Path 129" class="cls-3" d="M286.9,25.607h11.007L294.716,14.6l-7.5.957Z" transform="translate(-286.9 -14.6)"/>
        </g>
        <path id="Path_130" data-name="Path 130" class="cls-1" d="M287.219,15.557l7.5-.957,1.436,5.1C294.4,21.619,292,24.49,289.293,24.49a6.685,6.685,0,0,1-2.393-.638Z" transform="translate(-151.243 8.914)"/>
        <path id="Path_131" data-name="Path 131" class="cls-3" d="M287.888,26.359h0a9.267,9.267,0,0,0,11.007-7.019l2.233-9.89L285.655,6.1A76,76,0,0,0,283.9,19.34C283.9,23.488,285.336,25.88,287.888,26.359Z" transform="translate(-153.029 3.855)"/>
        <rect id="Rectangle_31" data-name="Rectangle 31" class="cls-12" width="3.031" height="1.276" transform="matrix(-0.976, -0.217, 0.217, -0.976, 147.671, 18.633)"/>
        <path id="Path_132" data-name="Path 132" class="cls-3" d="M291.96,14.047c-.479,1.914.16,3.669,1.276,3.988s3.031-2.074,3.35-3.988-.638-2.871-1.914-3.031C293.715,10.7,292.439,12.133,291.96,14.047Z" transform="translate(-148.327 6.755)"/>
        <path id="Path_133" data-name="Path 133" class="cls-12" d="M283.815,11.3a7.781,7.781,0,0,1,.638-3.828h0a6.282,6.282,0,0,1,7.816-3.35c.319.16.638.16.957.319l5.1,1.117a5.574,5.574,0,0,1,4.307,6.859l-.319,1.276-3.031,1.755-1.276,2.233h-.159a1.882,1.882,0,0,1-1.436-2.233,2.825,2.825,0,0,0-2.233-3.509l-4.626-.957c-2.871-.638-4.626.479-5.1,2.712l-.319,1.755Z" transform="translate(-153.104 2.488)"/>
        <g id="Group_109" data-name="Group 109" transform="translate(82.377 72.965)">
          <line id="Line_2" data-name="Line 2" class="cls-13" x2="75.612" y2="421.133" transform="translate(63.01)"/>
          <line id="Line_3" data-name="Line 3" class="cls-13" x1="75.772" y1="421.133"/>
          <line id="Line_4" data-name="Line 4" class="cls-13" x2="61.415" transform="translate(5.105 18.664)"/>
          <line id="Line_5" data-name="Line 5" class="cls-13" x2="62.372" transform="translate(9.093 46.899)"/>
          <line id="Line_6" data-name="Line 6" class="cls-13" x2="61.894" transform="translate(14.835 75.134)"/>
          <line id="Line_7" data-name="Line 7" class="cls-13" x2="61.575" transform="translate(20.259 103.209)"/>
          <line id="Line_8" data-name="Line 8" class="cls-13" x2="62.213" transform="translate(23.609 131.444)"/>
          <line id="Line_9" data-name="Line 9" class="cls-13" x2="63.17" transform="translate(27.916 159.041)"/>
          <line id="Line_10" data-name="Line 10" class="cls-13" x2="62.053" transform="translate(34.297 187.755)"/>
          <line id="Line_11" data-name="Line 11" class="cls-13" x2="62.213" transform="translate(39.401 215.99)"/>
          <line id="Line_12" data-name="Line 12" class="cls-13" x2="62.213" transform="translate(44.347 242.63)"/>
          <line id="Line_13" data-name="Line 13" class="cls-13" x2="62.213" transform="translate(48.654 269.27)"/>
          <line id="Line_14" data-name="Line 14" class="cls-13" x2="62.213" transform="translate(53.599 295.909)"/>
          <line id="Line_15" data-name="Line 15" class="cls-13" x2="62.213" transform="translate(58.225 322.549)"/>
          <line id="Line_16" data-name="Line 16" class="cls-13" x2="62.213" transform="translate(62.851 349.189)"/>
          <line id="Line_17" data-name="Line 17" class="cls-13" x2="62.213" transform="translate(68.275 375.829)"/>
        </g>
        <g id="Group_110" data-name="Group 110" transform="translate(6.126 72.965)">
          <line id="Line_18" data-name="Line 18" class="cls-14" x1="76.251" y2="422.09"/>
          <line id="Line_19" data-name="Line 19" class="cls-14" y1="422.09" x2="76.41" transform="translate(62.851)"/>
          <line id="Line_20" data-name="Line 20" class="cls-14" x1="61.256" transform="translate(72.901 18.664)"/>
          <line id="Line_21" data-name="Line 21" class="cls-14" x1="62.372" transform="translate(67.796 46.899)"/>
          <line id="Line_22" data-name="Line 22" class="cls-14" x1="61.734" transform="translate(62.691 75.134)"/>
          <line id="Line_23" data-name="Line 23" class="cls-14" x1="61.575" transform="translate(57.427 103.209)"/>
          <line id="Line_24" data-name="Line 24" class="cls-14" x1="62.213" transform="translate(52.323 131.444)"/>
          <line id="Line_25" data-name="Line 25" class="cls-14" x1="63.01" transform="translate(47.377 159.041)"/>
          <line id="Line_26" data-name="Line 26" class="cls-14" x1="62.053" transform="translate(42.113 187.755)"/>
          <line id="Line_27" data-name="Line 27" class="cls-14" x1="62.213" transform="translate(37.647 215.99)"/>
          <line id="Line_28" data-name="Line 28" class="cls-14" x1="62.213" transform="translate(32.861 247.575)"/>
          <line id="Line_29" data-name="Line 29" class="cls-14" x1="62.213" transform="translate(25.683 279.16)"/>
          <line id="Line_30" data-name="Line 30" class="cls-14" x1="62.213" transform="translate(20.259 310.904)"/>
          <line id="Line_31" data-name="Line 31" class="cls-14" x1="62.213" transform="translate(15.154 342.489)"/>
          <line id="Line_32" data-name="Line 32" class="cls-14" x1="62.372" transform="translate(8.455 374.393)"/>
        </g>
        <path id="Path_134" data-name="Path 134" class="cls-12" d="M300.3,7.531c.319,2.871-9.89,6.381-12.6,6.7a5.234,5.234,0,0,1-5.583-4.467,5.082,5.082,0,0,1,4.307-5.743C289.132,3.7,299.979,4.66,300.3,7.531Z" transform="translate(-154.113 2.583)"/>
        <path id="Path_135" data-name="Path 135" class="cls-15" d="M206.869,14.281a6.242,6.242,0,0,0-4.945,7.019l5.583,31.425,2.074-.319a12.206,12.206,0,1,1,13.24,17.069,11.908,11.908,0,0,1-10.688-3.35l-2.074.319,6.221,34.775a6.242,6.242,0,0,0,7.019,4.945l31.425-5.583-.319-2.233a12.206,12.206,0,1,1,17.069-13.24,11.908,11.908,0,0,1-3.35,10.688l.319,2.233,34.775-6.221a6.242,6.242,0,0,0,4.945-7.019l-14.2-79.919a6.242,6.242,0,0,0-7.019-4.945Z" transform="translate(-201.86 0.14)"/>
        <path id="Path_136" data-name="Path 136" class="cls-3" d="M330.367,32.153a84.586,84.586,0,0,1-16.112,15.952c-21.216,15.473-44.027,17.069-62.532-.479a1.836,1.836,0,0,1,0-2.712,1.934,1.934,0,0,1,2.393-.319h.16c12.123,7.019,22.971,9.89,36.53,4.148C308.672,41.086,321.433,22.423,320,24.177A6.617,6.617,0,0,1,329.25,22.9,6.741,6.741,0,0,1,330.367,32.153Z" transform="translate(-172.537 13.056)"/>
        <g id="Group_111" data-name="Group 111" transform="translate(137.529 34.429)">
          <path id="Path_137" data-name="Path 137" class="cls-2" d="M288.116,34.934c4.467-3.988,10.05-11.8,10.05-11.8s2.712-3.19,8.136-.8c4.467,1.914,3.509,7.019,3.509,7.019-.159.8-1.6,9.252-11.645,16.909C298.165,46.1,287.318,35.572,288.116,34.934Z" transform="translate(-288.074 -21.442)"/>
        </g>
        <path id="Path_138" data-name="Path 138" class="cls-3" d="M259.118,39.959C257.682,38.2,257.2,32.3,256.406,32.3c-.638,0-.638,2.074-.638,3.19a.557.557,0,0,1-.16.319h-.319c-1.6-1.436-6.381-5.424-6.859-5.1s1.914,3.35,2.871,4.467v.16h-.16c-1.276-.638-5.583-2.712-5.583-1.914-.16.8,3.669,3.19,5.1,4.148v.16h-.16c-1.6-.479-5.743-1.6-5.9-.957-.16.8,3.988,2.552,5.424,3.031v.16h-.16c-1.436-.16-5.1-.319-4.467.16.638.638,9.571,3.669,11.485,3.669C258.958,43.787,259.118,39.959,259.118,39.959Z" transform="translate(-176.422 18.49)"/>
      </g>
      <rect id="Rectangle_32" data-name="Rectangle 32" class="cls-15" width="420.654" height="256.029" transform="translate(58.703 159.106)"/>
      <rect id="Rectangle_33" data-name="Rectangle 33" class="cls-16" width="378.062" height="217.585" transform="translate(80.079 178.248)"/>
      <g id="Group_113" data-name="Group 113" transform="translate(104.645 232.964)">
        <rect id="Rectangle_34" data-name="Rectangle 34" class="cls-17" width="96.829" height="138.782"/>
        <rect id="Rectangle_35" data-name="Rectangle 35" class="cls-17" width="96.829" height="138.782" transform="translate(118.683)"/>
        <rect id="Rectangle_36" data-name="Rectangle 36" class="cls-17" width="96.829" height="138.782" transform="translate(237.366)"/>
      </g>
      <rect id="Rectangle_37" data-name="Rectangle 37" class="cls-18" width="378.062" height="3.509" transform="translate(80.079 178.248)"/>
      <g id="Group_117" data-name="Group 117" transform="translate(0 244.08)">
        <path id="Path_139" data-name="Path 139" class="cls-1" d="M20.166,283.6s-8.614,9.89-10.209,11.485c-1.276,1.276-3.19,1.755-4.945,2.233A6.675,6.675,0,0,0,3.1,298.595a1.963,1.963,0,0,0-.8,1.6c.16,11.166,9.89,18.983,10.528,18.345.957-1.117.16-4.467-1.6-6.54A8.067,8.067,0,0,1,9.8,304.019h0a13.351,13.351,0,0,1,3.509-5.743l7.5-7.019Z" transform="translate(1.369 -75.058)"/>
        <path id="Path_140" data-name="Path 140" class="cls-19" d="M2.074,313.748H143.249a2.112,2.112,0,0,0,2.074-2.074h0a2.112,2.112,0,0,0-2.074-2.074H2.074A2.112,2.112,0,0,0,0,311.674H0A2.112,2.112,0,0,0,2.074,313.748Z" transform="translate(0 -59.583)"/>
        <path id="Path_141" data-name="Path 141" class="cls-1" d="M68.8,294.286l6.859,11.485a17.536,17.536,0,0,1,2.233,11.645h0a3.887,3.887,0,0,0,3.509,4.467c7.338.16,21.695.479,22.173-.16,2.074-3.509-7.019-4.945-14.038-7.338-4.786-1.6-10.688-14.676-14.357-24.885L69.6,293.009A1.421,1.421,0,0,0,68.8,294.286Z" transform="translate(40.95 -71.546)"/>
        <path id="Path_142" data-name="Path 142" class="cls-20" d="M86.187,308.1a41.611,41.611,0,0,0,8.933-1.276h.957c3.35,1.117,5.264,2.871,4.148,4.626-.479.8-17.228.319-23.928.16a2.139,2.139,0,0,1-2.074-2.712L74.7,306.5A47.453,47.453,0,0,0,86.187,308.1Z" transform="translate(44.141 -61.428)"/>
        <path id="Path_143" data-name="Path 143" class="cls-21" d="M77.489,211.293c-7.657-1.6-16.59,4.626-18.664,14.516-1.117,5.583-2.712,26.48-2.552,43.549a18.433,18.433,0,0,1-8.614,16.271,14.453,14.453,0,0,0-2.552,1.755c-3.669,3.35-21.216,25.2-32.063,40.039-.319,2.393,0,5.583,1.276,7.019,14.038-11.007,37.647-31.585,41.635-35.254,2.233-2.074,4.626-4.467,6.7-6.7,8.614-5.743,22.492-49.77,24.407-58.7C89.134,224.214,85.146,212.888,77.489,211.293Z" transform="translate(7.695 -118.243)"/>
        <ellipse id="Ellipse_2" data-name="Ellipse 2" class="cls-22" cx="11.804" cy="15.314" rx="11.804" ry="15.314" transform="translate(68.753 14.406)"/>
        <path id="Path_144" data-name="Path 144" class="cls-22" d="M68.2,178.465a16.464,16.464,0,0,0-15.473-15.952A16.2,16.2,0,0,0,36.453,173.2a5.575,5.575,0,0,1-5.583,3.669,11.4,11.4,0,0,0-3.19.319A14.739,14.739,0,0,0,16.035,189.95a14.35,14.35,0,0,0,6.381,13.559,8.346,8.346,0,0,1,3.19,5.424,19.117,19.117,0,1,0,33.18-15.473A16.1,16.1,0,0,0,68.2,178.465Z" transform="translate(9.489 -147.149)"/>
        <path id="Path_145" data-name="Path 145" class="cls-23" d="M137.172,186.258a7.069,7.069,0,0,0-7.338,2.871H128.08V172.859a5.379,5.379,0,0,0-5.424-5.424H104.471V165.68a7.069,7.069,0,0,0,2.871-7.338,6.939,6.939,0,0,0-13.719,1.6,6.762,6.762,0,0,0,3.031,5.743v1.755H80.224a5.379,5.379,0,0,0-5.424,5.424V189.13h1.276a7.069,7.069,0,0,1,7.338-2.871,6.939,6.939,0,0,1-1.6,13.719,6.762,6.762,0,0,1-5.743-3.031H74.8v18.185a5.379,5.379,0,0,0,5.424,5.424H96.495v-1.276a7.069,7.069,0,0,1-2.871-7.338,6.939,6.939,0,0,1,13.719,1.6,6.762,6.762,0,0,1-3.031,5.743v1.276H122.5a5.379,5.379,0,0,0,5.424-5.424V196.946h1.755a7.166,7.166,0,0,0,5.743,3.031,7.008,7.008,0,0,0,6.859-8.614A6.462,6.462,0,0,0,137.172,186.258Z" transform="translate(44.521 -152.869)"/>
        <path id="Path_146" data-name="Path 146" class="cls-22" d="M50.5,160.171s6.7,4.148,5.9,9.89c0,0,3.509-2.552,4.307-11.166C61.188,152.833,50.5,160.171,50.5,160.171Z" transform="translate(30.058 -150.71)"/>
        <g id="Group_114" data-name="Group 114" transform="translate(81.987 27.326)">
          <path id="Path_147" data-name="Path 147" class="cls-3" d="M65.759,186.431a43.916,43.916,0,0,0,.319,7.976,26.083,26.083,0,0,0,1.914,7.338,13.909,13.909,0,0,0,1.436,2.712,9.766,9.766,0,0,0,.8.957c-.16,0-.16.319.479,0,.319,0,.638-.319.957-.638s.8-.638,1.276-1.117a31.326,31.326,0,0,0,4.786-6.7c1.436-2.552,2.712-5.264,3.988-8.136,2.393-5.583,4.467-11.485,6.381-17.388h0a1.9,1.9,0,0,1,2.552-1.276,2.07,2.07,0,0,1,1.436,2.233,156.006,156.006,0,0,1-3.509,18.823c-.319,1.6-.8,3.19-1.276,4.786s-.957,3.19-1.6,4.786a38.251,38.251,0,0,1-4.945,9.412l-1.914,2.393a12.671,12.671,0,0,1-2.712,2.233l-.8.479-.957.479a7.9,7.9,0,0,1-2.074.638,11.3,11.3,0,0,1-4.626,0,13.619,13.619,0,0,1-7.019-3.988,22.483,22.483,0,0,1-3.828-5.1A48.026,48.026,0,0,1,51.4,186.272h0a7.269,7.269,0,1,1,14.516-.8A2.806,2.806,0,0,0,65.759,186.431Z" transform="translate(-51.396 -169.999)"/>
        </g>
        <path id="Path_148" data-name="Path 148" class="cls-3" d="M66.054,212.29c2.712-7.976,7.976-25.045,7.5-30.468a6.8,6.8,0,0,0-6.859-6.221H43.721a6.945,6.945,0,0,0-7.019,6.859c-.16,6.7,2.871,22.014,4.626,29.99H66.054Z" transform="translate(21.842 -139.339)"/>
        <path id="Path_149" data-name="Path 149" class="cls-3" d="M64.215,227.486c2.712,9.571,24.247,77.846,16.75,79.919s-48.015-64.606-48.654-74.5c-.479-9.412,4.945-19.621,12.443-21.695S61.5,217.914,64.215,227.486Z" transform="translate(19.214 -118.324)"/>
        <path id="Path_150" data-name="Path 150" class="cls-24" d="M97.555,338.771a.983.983,0,0,0,.16-1.117c-5.743-15.952-13.559-36.211-15.154-40.04a4.776,4.776,0,0,0-.638-1.276c-2.871-20.259-15.792-61.415-17.866-68.753-2.712-9.571-11.8-18.345-19.3-16.271S31.832,223.6,32.311,233.009c.319,6.221,16.431,34.616,30.149,54.556A33.784,33.784,0,0,1,68.043,301.6a44.093,44.093,0,0,0,2.712,9.412c1.6,3.828,11.166,18.185,19.78,30.309.319.319.638.638,1.117.479A7.982,7.982,0,0,0,97.555,338.771Z" transform="translate(19.214 -118.265)"/>
        <path id="Path_151" data-name="Path 151" class="cls-25" d="M40.221,222.5a21.539,21.539,0,0,0,1.117-10.528c-1.117-8.135-3.19-23.609-3.031-30.149a6.508,6.508,0,0,1,6.54-6.221h3.509a8.786,8.786,0,0,0,8.455,5.424,8.563,8.563,0,0,0,8.3-5.424H68.3c-3.509,7.5-2.233,17.388,3.828,23.13-1.117,3.988-2.074,7.976-2.712,11.166a22.95,22.95,0,0,0,1.117,13.081c3.031,7.019,5.264,18.5,4.626,22.971C50.75,252.808,34,240.684,34,240.684Z" transform="translate(20.237 -139.339)"/>
        <path id="Path_152" data-name="Path 152" class="cls-26" d="M67.487,205.373a35.883,35.883,0,0,1,.8-3.509,61.052,61.052,0,0,1-10.369-3.509C50.9,195.324,41.8,190.219,36.7,183.2c.16,2.074.319,4.148.638,6.54,2.552,5.9,5.1,11.485,10.05,15.792A53.645,53.645,0,0,0,67.966,216.54,22.13,22.13,0,0,1,67.487,205.373Z" transform="translate(21.844 -134.816)"/>
        <g id="Group_115" data-name="Group 115" transform="translate(70.029 25.254)">
          <path id="Path_153" data-name="Path 153" class="cls-3" d="M54.428,181.3,43.9,180.185,47.25,168.7l6.7.8Z" transform="translate(-43.9 -168.7)"/>
        </g>
        <path id="Path_154" data-name="Path 154" class="cls-1" d="M53.116,169.5l-6.859-.8-.957,3.509c1.6,1.755,3.509,5.424,5.9,5.424A3.206,3.206,0,0,0,53.276,177Z" transform="translate(26.963 -143.446)"/>
        <path id="Path_155" data-name="Path 155" class="cls-3" d="M54.8,180.914c-2.233,0-4.786-1.117-8.3-4.148C44.6,175.011,43,171.981,43,170.066V158.9H60.228a31.6,31.6,0,0,1,0,11.8C59.431,175.012,56.559,180.914,54.8,180.914Z" transform="translate(25.594 -149.279)"/>
        <path id="Path_156" data-name="Path 156" class="cls-3" d="M46.8,165.988c0,2.233-1.117,3.988-2.393,3.988s-2.712-2.871-2.712-5.1A2.547,2.547,0,0,1,44.412,162C45.688,162,46.8,163.755,46.8,165.988Z" transform="translate(24.82 -147.434)"/>
        <path id="Path_157" data-name="Path 157" class="cls-22" d="M41.7,162.8a6.4,6.4,0,0,1,6.381-6.381h5.9a9.15,9.15,0,0,0,4.626-1.276,4.67,4.67,0,0,1,6.062,1.117c1.6,2.074,2.233,4.786-1.6,7.338-1.914,1.276-4.786-.16-6.54.479H51.112a3.2,3.2,0,0,0-3.19,3.19,2.112,2.112,0,0,1-2.074,2.074h-.479l-.8-2.712L41.7,170.454Z" transform="translate(24.82 -151.9)"/>
        <path id="Path_158" data-name="Path 158" class="cls-3" d="M80.1,171.35s1.276,5.9-.479,6.859-3.031,1.276-4.467-1.117A22.872,22.872,0,0,1,72.6,168.16c0-2.552,1.6-6.859,2.074-7.178,1.755-1.276,1.436,3.35,1.276,5.583,0,2.233,0,4.786,1.117,4.467s.957-4.626,2.074-5.264C80.416,165.129,80.1,171.35,80.1,171.35Z" transform="translate(43.211 -148.17)"/>
        <path id="Path_159" data-name="Path 159" class="cls-3" d="M96.322,193s-6.062-.957-6.859.8c-.957,1.755-1.276,3.031,1.276,4.467a18.919,18.919,0,0,0,9.093,2.074c2.552,0,6.7-1.914,7.019-2.393,1.117-1.755-3.35-1.276-5.583-1.117s-4.786.16-4.467-.957c.16-1.117,4.467-1.117,5.264-2.233C102.543,192.519,96.322,193,96.322,193Z" transform="translate(52.829 -129.14)"/>
        <path id="Path_160" data-name="Path 160" class="cls-22" d="M61.254,160.486c-.638,2.552.319,3.988-8.136,7.976S42.112,170.695,39.4,175c0,0,1.117-7.178,5.743-9.571S57.9,161.443,60.457,155.7C60.457,155.7,61.573,158.731,61.254,160.486Z" transform="translate(23.451 -151.184)"/>
        <g id="Group_116" data-name="Group 116" transform="translate(55.743 36.525)">
          <path id="Path_161" data-name="Path 161" class="cls-3" d="M49.39,182.042v0l.16.16c.16.319.16.479.319.8a18.714,18.714,0,0,1,.8,1.755c.319.479.638,1.117,1.117,1.755a11.175,11.175,0,0,1,1.276,1.6c1.117.957,1.914,2.233,3.19,3.031L58,192.57l2.074,1.276c5.583,3.35,12.283,5.583,19.3,7.338,1.755.319,3.509.638,5.424.957,1.755.319,3.509.638,5.424.8l5.583.479,2.712.319,2.871.16,5.583.319c1.914.16,3.828.16,5.583.16h11.485a2.112,2.112,0,0,1,2.074,2.074,2.426,2.426,0,0,1-1.6,2.074c-3.828.8-7.657,1.436-11.326,2.233a35.516,35.516,0,0,1-5.743.8l-5.743.638-2.871.319-2.871.16-5.9.16a36.5,36.5,0,0,1-5.9-.16c-2.074-.16-3.988-.16-6.062-.319-7.976-.957-16.271-2.552-24.088-6.54l-2.871-1.6L48.273,202.3a45.915,45.915,0,0,1-5.264-4.467c-.8-.957-1.6-1.755-2.393-2.712a34.167,34.167,0,0,1-2.074-3.031,33.749,33.749,0,0,1-1.755-3.35l-.638-1.914-.319-1.117-.16-.638-.638-.957a7.349,7.349,0,0,1,6.062-8.3A7.466,7.466,0,0,1,49.39,182.042Z" transform="translate(-34.944 -175.766)"/>
        </g>
        <path id="Path_162" data-name="Path 162" class="cls-22" d="M52.111,159.683s.319,8.614,7.816,12.762c0,0-3.35-6.54-3.031-10.847C57.056,157.45,51.633,156.652,52.111,159.683Z" transform="translate(30.999 -149.903)"/>
        <path id="Path_163" data-name="Path 163" class="cls-20" d="M.147,296.775a1.592,1.592,0,0,1,.638-1.914c.479-.319,1.914-1.276,3.031-1.914a.716.716,0,0,1,1.117.638c.638,6.221,3.509,11.8,8.774,14.516,1.436,1.755,1.6,4.945.8,5.9-.16.16-2.712-.638-4.626-3.031C.625,300.444.147,296.775.147,296.775Z" transform="translate(0.013 -69.569)"/>
      </g>
      <g id="Group_121" data-name="Group 121" transform="translate(322.549 255.051)">
        <path id="Path_164" data-name="Path 164" class="cls-3" d="M356.579,276.829c-.319,0-.638-.16-1.117-.16a16.4,16.4,0,0,0-2.871-.16,8.628,8.628,0,0,1-4.786-.957l-6.062-3.031a3.075,3.075,0,0,0-4.148,3.988h0c.16.16.319.479.479.479l7.178,3.19a15.409,15.409,0,0,1,5.424,4.147l2.074,2.552C357.058,284.167,356.42,279.221,356.579,276.829Z" transform="translate(-121.766 -92.816)"/>
        <path id="Path_165" data-name="Path 165" class="cls-27" d="M348.474,296.25c.319-3.509-1.276-9.252-2.074-11.166a12.493,12.493,0,0,0,.8-10.369,8.469,8.469,0,0,1,2.871.16c1.117.319,3.828.638,4.945.8a1.553,1.553,0,0,1,1.276,1.6s-3.509,24.885-4.148,24.406C350.867,301.036,348.314,299.281,348.474,296.25Z" transform="translate(-116.372 -91.34)"/>
        <path id="Path_166" data-name="Path 166" class="cls-19" d="M204.274,314.848h88.055a2.112,2.112,0,0,0,2.074-2.074h0a2.112,2.112,0,0,0-2.074-2.074H204.274a2.112,2.112,0,0,0-2.074,2.074h0A2.011,2.011,0,0,0,204.274,314.848Z" transform="translate(-202.2 -69.898)"/>
        <path id="Path_167" data-name="Path 167" class="cls-19" d="M294.439,314.967h95.712a2.181,2.181,0,0,0,2.233-2.233h0a2.181,2.181,0,0,0-2.233-2.233H294.439a2.181,2.181,0,0,0-2.233,2.233h0A2.093,2.093,0,0,0,294.439,314.967Z" transform="translate(-148.638 -70.017)"/>
        <path id="Path_168" data-name="Path 168" class="cls-28" d="M271.095,264.106c-1.914,7.657-15.473,67.8-12.762,67.8,2.393,0,27.118-56.151,29.033-63.808s-.16-14.676-4.626-15.952C278.273,251.185,273.009,256.449,271.095,264.106Z" transform="translate(-169.002 -104.819)"/>
        <path id="Path_169" data-name="Path 169" class="cls-28" d="M296.234,224.241c-6.54,7.976-35.732,60.139-29.511,65.244s46.739-38.125,53.28-46.1,5.583-19.3-.638-24.407C312.983,214.031,302.774,216.265,296.234,224.241Z" transform="translate(-164.311 -126.05)"/>
        <path id="Path_170" data-name="Path 170" class="cls-3" d="M264.347,314.555v-1.117a17.577,17.577,0,0,0-.319-2.871,9.736,9.736,0,0,1,.16-4.786l2.074-6.381a3.083,3.083,0,0,0-4.626-3.509h0a2.2,2.2,0,0,0-.479.638l-2.074,7.657a14.567,14.567,0,0,1-3.35,5.9l-2.233,2.393C257.169,315.991,261.8,314.715,264.347,314.555Z" transform="translate(-171.666 -79.018)"/>
        <path id="Path_171" data-name="Path 171" class="cls-27" d="M248.948,309.367c3.509-.16,8.933-2.552,10.688-3.669A12.916,12.916,0,0,0,270,304.9a17.575,17.575,0,0,1,.319,2.871c0,1.117-.16,3.828-.16,4.945a1.43,1.43,0,0,1-1.436,1.436s-25.2.319-24.726-.638C244.481,312.238,245.917,309.526,248.948,309.367Z" transform="translate(-177.323 -73.351)"/>
        <path id="Path_172" data-name="Path 172" class="cls-29" d="M287.649,289.451c-1.117,4.786-15.952,41.316-23.928,58.384-2.393-.957-3.669-.8-6.221-1.6,3.19-15.952,8.614-51.844,10.528-59.5.8-10.688,27.118-55.034,33.18-62.372,6.54-7.976,16.909-10.369,22.971-5.264,6.221,5.1,7.178,16.431.638,24.407C320.67,248.614,288.447,286.261,287.649,289.451Z" transform="translate(-169.286 -126.017)"/>
        <path id="Path_173" data-name="Path 173" class="cls-30" d="M308.645,219.1c-6.221-5.1-16.431-2.712-22.971,5.264-.479.638-1.276,1.6-2.074,2.712,5.9,11.8,7.976,24.726,7.657,37.966,8.136-9.731,16.112-19.142,18.026-21.535C315.823,235.374,314.866,224.048,308.645,219.1Z" transform="translate(-153.751 -126.017)"/>
        <path id="Path_174" data-name="Path 174" class="cls-10" d="M297.571,291.505h0a6.669,6.669,0,0,1-.638-1.6c-4.307-12.921-3.19-59.82-1.755-69.391a24.008,24.008,0,0,1,2.074-7.019l13.878,7.5a50.48,50.48,0,0,0,12.283,10.209c.638.479-.319-1.436.479-1.117-2.074,12.283-4.626,36.849-5.583,49.132a6.574,6.574,0,0,0,3.988,6.54c12.921,5.424,36.052,15.952,48.973,22.971l-.479,7.338c-18.823-3.988-56.31-15.154-62.053-16.75C303.474,297.886,299.326,294.7,297.571,291.505Z" transform="translate(-147.623 -127.752)"/>
        <g id="Group_118" data-name="Group 118" transform="translate(73.137 37.568)">
          <path id="Path_175" data-name="Path 175" class="cls-1" d="M313.374,190.959c0,.8-.16,1.117-.16,1.755,0,.479-.16.957-.16,1.436-.16.957-.319,1.914-.479,2.712-.479,1.755-.957,3.509-1.6,5.264a41.6,41.6,0,0,1-5.1,9.89,37.346,37.346,0,0,1-17.069,13.559,39.247,39.247,0,0,1-10.05,2.712,53.06,53.06,0,0,1-10.05.479,95.982,95.982,0,0,1-19.142-3.19,2.148,2.148,0,0,1-1.436-2.712,2.4,2.4,0,0,1,2.233-1.6h0a97.084,97.084,0,0,0,18.026-.16c5.743-.8,11.326-2.233,15.952-5.1a26.054,26.054,0,0,0,10.369-10.847,35.123,35.123,0,0,0,2.712-7.178,31.943,31.943,0,0,0,.638-3.828,7.767,7.767,0,0,0,.16-1.914v-1.6a7.352,7.352,0,0,1,7.5-7.338C310.184,183.462,313.534,186.811,313.374,190.959Z" transform="translate(-248.049 -183.297)"/>
        </g>
        <path id="Path_176" data-name="Path 176" class="cls-31" d="M274.7,203.135c1.276-2.712,6.221-13.559,6.859-16.112v-.16c0-.16.16-.479.16-.638a7.466,7.466,0,0,1,14.2,4.626c-1.276,3.669-2.552,6.7-3.988,10.05a61.321,61.321,0,0,1-3.35,6.381C287.462,206.325,274.7,203.135,274.7,203.135Z" transform="translate(-159.048 -147.057)"/>
        <path id="Path_177" data-name="Path 177" class="cls-3" d="M288.562,255.8c6.221,5.1,32.064,4.148,41.794,3.509a4.124,4.124,0,0,0,3.828-4.786c-.957-6.062-5.264-16.59-7.816-27.437-3.669-15.792-7.178-33.18-9.093-42.592a7.25,7.25,0,0,0-8.454-5.743l-23.609,3.828a7,7,0,0,0-5.9,7.5c.638,7.657,1.755,20.9,2.712,33.818C283.138,237.136,281.862,250.377,288.562,255.8Z" transform="translate(-156.32 -148.517)"/>
        <path id="Path_178" data-name="Path 178" class="cls-32" d="M284.994,182.686l3.828-.638a8.865,8.865,0,0,0,9.412,3.988c4.467-.8,6.859-3.509,7.657-6.859l3.509-.638a6.651,6.651,0,0,1,7.657,5.264c1.755,9.252,5.424,27.118,9.093,43.23,2.552,11.007,6.859,21.216,7.816,27.437a4.223,4.223,0,0,1-3.828,4.786c-9.731.638-35.413,1.6-41.635-3.509-6.7-5.424-5.264-18.664-6.381-31.9-1.117-13.081-2.074-26.48-2.712-33.978A6.759,6.759,0,0,1,284.994,182.686Z" transform="translate(-156.261 -148.622)"/>
        <path id="Path_179" data-name="Path 179" class="cls-33" d="M292.407,179.409l.479-.16a6.312,6.312,0,0,0,4.307-7.816L294.64,162.5l-6.54,1.914Z" transform="translate(-151.072 -158.107)"/>
        <g id="Group_119" data-name="Group 119" transform="translate(133.199 19.707)">
          <path id="Path_180" data-name="Path 180" class="cls-3" d="M288.412,186.457l11.486-.8.319-1.6-6.54-11.964-7.976,3.35Z" transform="translate(-285.7 -172.1)"/>
        </g>
        <path id="Path_181" data-name="Path 181" class="cls-1" d="M285.7,175.45l7.976-3.35,2.712,4.786c-1.276,2.552-2.712,5.424-5.743,6.381a5.823,5.823,0,0,1-2.871,0Z" transform="translate(-152.501 -152.393)"/>
        <path id="Path_182" data-name="Path 182" class="cls-3" d="M293.14,186.288h0a10.408,10.408,0,0,0,7.178-12.921l-3.19-11.166L279.9,167.145s2.552,8.774,5.424,14.2C287.557,185.49,290.269,187.085,293.14,186.288Z" transform="translate(-155.953 -158.285)"/>
        <rect id="Rectangle_38" data-name="Rectangle 38" class="cls-33" width="3.35" height="1.595" transform="translate(143.577 9.429) rotate(163.99)"/>
        <path id="Path_183" data-name="Path 183" class="cls-3" d="M290.468,170.113c.638,2.233,2.233,3.669,3.509,3.35s1.914-3.669,1.276-5.743a2.642,2.642,0,0,0-3.509-2.074C290.468,165.806,289.989,167.88,290.468,170.113Z" transform="translate(-149.771 -156.308)"/>
        <path id="Path_184" data-name="Path 184" class="cls-33" d="M280.757,173.551a9.923,9.923,0,0,1-1.436-4.148s-1.436-4.945.16-6.54c1.6-1.436,4.945-1.117,6.859-1.276a49.756,49.756,0,0,0,5.743-1.6,6.546,6.546,0,0,1,8.135,4.467l.319,1.276-2.074,3.509v2.871h-.16a2.366,2.366,0,0,1-2.712-1.276,3.454,3.454,0,0,0-4.148-2.393l-5.1,1.436c-3.19.957-4.307,3.031-3.669,5.424l.8,1.914Z" transform="translate(-156.651 -159.746)"/>
        <path id="Path_185" data-name="Path 185" class="cls-34" d="M272.258,192.332l-1.117-2.712a11.151,11.151,0,0,0,1.276-9.571c-1.914-5.743-8.774-9.093-14.357-7.019a11.043,11.043,0,0,0,1.276,21.057l1.117,2.712-29.192,11.326a4.956,4.956,0,0,0-2.871,6.381l11.326,28.873-1.6.638a11.151,11.151,0,0,0-9.571-1.276c-5.743,1.914-9.093,8.774-7.019,14.357a11.043,11.043,0,0,0,21.057-1.276l1.6-.638,11.326,28.873a4.956,4.956,0,0,0,6.381,2.871l69.551-27.118a4.956,4.956,0,0,0,2.871-6.381l-27.118-69.551a4.956,4.956,0,0,0-6.381-2.871Z" transform="translate(-191.062 -152.207)"/>
        <path id="Path_186" data-name="Path 186" class="cls-3" d="M336.972,185.491c.957,18.664-9.412,40.837-31.425,46.261-17.547,4.307-36.371-.479-52.961-7.657a2.164,2.164,0,0,1-1.117-2.871,2.251,2.251,0,0,1,2.393-1.276h0c23.13,4.945,52.642,8.136,63.489-12.921,5.583-10.369,4.467-22.811,4.626-21.057C321.817,176.4,336.334,175.92,336.972,185.491Z" transform="translate(-172.985 -148.556)"/>
        <g id="Group_120" data-name="Group 120" transform="translate(146.753 29.445)">
          <path id="Path_187" data-name="Path 187" class="cls-31" d="M294.2,200.53a126.3,126.3,0,0,0,2.074-14.516v.16l1.276-5.1s2.393-3.988,8.933-2.552c5.264,1.276,5.264,7.178,5.264,7.178,0,.8,1.914,6.859-3.19,19.78C308.4,205.794,293.883,201.647,294.2,200.53Z" transform="translate(-294.197 -178.205)"/>
        </g>
      </g>
      <path id="Path_188" data-name="Path 188" class="cls-3" d="M259.118,208.259c-1.436-1.755-1.914-7.657-2.712-7.657-.638,0-.638,2.074-.638,3.19a.557.557,0,0,1-.16.319h-.319c-1.6-1.436-6.381-5.424-6.859-5.1s1.914,3.35,2.871,4.467v.16h-.16c-1.276-.638-5.583-2.712-5.583-1.914-.16.8,3.669,3.19,5.1,4.148v.16h-.16c-1.6-.479-5.743-1.6-5.9-.957-.16.8,3.988,2.552,5.424,3.031v.16h-.16c-1.436-.16-5.1-.319-4.467.16.638.638,9.571,3.669,11.485,3.669S259.118,208.259,259.118,208.259Z" transform="translate(145.584 118.662)"/>
      <rect id="Rectangle_39" data-name="Rectangle 39" class="cls-35" width="76.251" height="17.866" transform="translate(233.218 244.928)"/>
      <rect id="Rectangle_40" data-name="Rectangle 40" class="cls-35" width="76.251" height="17.866" transform="translate(233.218 271.727)"/>
      <rect id="Rectangle_41" data-name="Rectangle 41" class="cls-35" width="76.251" height="17.866" transform="translate(233.218 298.526)"/>
      <rect id="Rectangle_42" data-name="Rectangle 42" class="cls-35" width="76.251" height="17.866" transform="translate(233.218 325.326)"/>
      <rect id="Rectangle_43" data-name="Rectangle 43" class="cls-35" width="334.673" height="19.621" transform="translate(104.486 198.507)"/>
    </g>
    <path id="Path_189" data-name="Path 189" class="cls-25" d="M203.723,146.032H101.312a9.429,9.429,0,0,1-9.412-9.412V113.012a9.429,9.429,0,0,1,9.412-9.412H203.723a9.429,9.429,0,0,1,9.412,9.412v23.609A9.429,9.429,0,0,1,203.723,146.032Z" transform="translate(54.699 61.746)"/>
    <rect id="Rectangle_44" data-name="Rectangle 44" class="cls-25" width="9.731" height="9.731" transform="translate(242.855 200.8) rotate(45)"/>
    <rect id="Rectangle_45" data-name="Rectangle 45" class="cls-16" width="89.81" height="3.35" transform="translate(160.956 176.034)"/>
    <rect id="Rectangle_46" data-name="Rectangle 46" class="cls-16" width="89.81" height="3.35" transform="translate(160.956 184.967)"/>
    <rect id="Rectangle_47" data-name="Rectangle 47" class="cls-16" width="89.81" height="3.35" transform="translate(160.956 193.741)"/>
    <g id="Group_124" data-name="Group 124" transform="translate(178.024 330.449)">
      <rect id="Rectangle_48" data-name="Rectangle 48" class="cls-36" width="9.731" height="9.731" transform="translate(69.068 6.543) rotate(90)"/>
      <circle id="Ellipse_3" data-name="Ellipse 3" class="cls-23" cx="38.285" cy="38.285" r="38.285"/>
      <g id="Group_123" data-name="Group 123" transform="translate(20.738 35.413)">
        <circle id="Ellipse_4" data-name="Ellipse 4" class="cls-16" cx="3.031" cy="3.031" r="3.031"/>
        <circle id="Ellipse_5" data-name="Ellipse 5" class="cls-16" cx="3.031" cy="3.031" r="3.031" transform="translate(13.559)"/>
        <circle id="Ellipse_6" data-name="Ellipse 6" class="cls-16" cx="3.031" cy="3.031" r="3.031" transform="translate(27.278)"/>
      </g>
    </g>
  </g>
</svg>
