<svg xmlns="http://www.w3.org/2000/svg" viewBox="0 0 130 130">
  <defs>
    <style>
      .cls-1 {
        fill: #f6f6f6;
      }

      .cls-2 {
        fill: #9bcddd;
      }

      .cls-3 {
        fill: #eec4a7;
      }

      .cls-4 {
        fill: #4d4e68;
        opacity: 0.14;
      }

      .cls-5 {
        fill: #cee5e7;
      }

      .cls-6 {
        fill: #efd9b7;
      }

      .cls-7 {
        fill: #67401d;
      }

      .cls-8 {
        fill: #4e372c;
      }

      .cls-10, .cls-9 {
        fill: #fff;
      }

      .cls-9 {
        opacity: 0.47;
      }

      .cls-11 {
        fill: #90c1d2;
      }

      .cls-12 {
        fill: #b4bdbe;
      }

      .cls-13, .cls-14 {
        fill: #dde1e3;
      }

      .cls-13 {
        opacity: 0.96;
      }
    </style>
  </defs>
  <g id="experience" transform="translate(-497 -1104)">
    <circle id="Ellipse_7" data-name="Ellipse 7" class="cls-1" cx="65" cy="65" r="65" transform="translate(497 1104)"/>
    <g id="Group_176" data-name="Group 176" transform="translate(513.99 1119)">
      <g id="Group_175" data-name="Group 175" transform="translate(0.01)">
        <path id="Path_229" data-name="Path 229" class="cls-2" d="M78.736,44.019V74.185H8.6V44.019a6.718,6.718,0,0,1,1.81-4.374,5.74,5.74,0,0,1,1.961-1.357l.151-.151h.3c.6-.151,2.112-.754,2.112-.754h.151L30.923,31.5h0l3.167,2.262.452.3.3.3h0l4.072,3.017,2.413-3.167.151-.3,1.659-2.262h0L44.8,33.913l.151.3,2.413,3.167,4.374-3.167.6-.452,2.866-2.112,17.345,5.732a12.61,12.61,0,0,1,2.413,1.056c.151,0,.151.151.3.151h.151A5.945,5.945,0,0,1,78.736,44.019Z" transform="translate(4.356 16.011)"/>
        <rect id="Rectangle_80" data-name="Rectangle 80" class="cls-3" width="18.703" height="10.256" transform="translate(38.597 37.104)"/>
        <path id="Path_230" data-name="Path 230" class="cls-4" d="M33.969,31.5V74.185H30.5V31.5Z" transform="translate(15.487 16.011)"/>
        <path id="Path_231" data-name="Path 231" class="cls-5" d="M36.071,33.127,33.96,35.841,31.4,39.16,26.72,35.841l-.3-.3L23.1,33.127h0L25.362,28.3h1.056Z" transform="translate(11.726 14.385)"/>
        <path id="Path_232" data-name="Path 232" class="cls-5" d="M44.671,33.127l-3.017,2.112-.754.6L36.376,39.16l-2.564-3.318L31.7,33.127,41.353,28.3h1.056Z" transform="translate(16.097 14.385)"/>
        <g id="Group_172" data-name="Group 172" transform="translate(30.034)">
          <g id="Group_169" data-name="Group 169" transform="translate(0 17.496)">
            <path id="Path_233" data-name="Path 233" class="cls-6" d="M23.659,22.611a1.173,1.173,0,0,1-1.207-.3c-1.207-.6-2.112-2.413-2.413-4.676-.452-3.017.452-5.732,2.112-6.033H22.9a3.781,3.781,0,0,1,1.056.6,7.407,7.407,0,0,1,1.961,4.374C26.223,19.594,25.167,22.309,23.659,22.611Z" transform="translate(-19.923 -11.6)"/>
          </g>
          <g id="Group_170" data-name="Group 170" transform="translate(1.775 6.938)">
            <path id="Path_234" data-name="Path 234" class="cls-6" d="M52.322,20.588a22.206,22.206,0,0,1-.6,5.43c-1.81,8.6-7.843,15.083-15.083,15.083S23.212,34.615,21.552,25.867a28.207,28.207,0,0,1-.452-5.128,20.664,20.664,0,0,1,.6-5.43.554.554,0,0,1,.151-.452c0,.151.151.3.151.6a3.78,3.78,0,0,1,1.056.6c-.452-1.961.9-5.279,2.112-7.089,1.508-2.413,4.072-2.866,6.637-3.318a54.142,54.142,0,0,1,9.8-1.056,7.4,7.4,0,0,1,5.279,1.659c-.9,3.017,1.659,7.541,3.922,9.8a1.527,1.527,0,0,1,1.056-.6,2.567,2.567,0,0,1,.151,1.056A34.411,34.411,0,0,1,52.322,20.588Z" transform="translate(-21.1 -4.6)"/>
          </g>
          <g id="Group_171" data-name="Group 171" transform="translate(1.584)">
            <path id="Path_235" data-name="Path 235" class="cls-7" d="M52.839,15.385a9.276,9.276,0,0,1-.151,2.112h-.9a3.781,3.781,0,0,0-1.056.6c-2.413-2.262-4.827-6.787-3.922-9.8a7.4,7.4,0,0,0-5.279-1.659,52.728,52.728,0,0,0-9.8,1.056c-2.564.6-5.128,1.056-6.637,3.318-1.056,1.659-2.564,5.128-2.112,7.089-.3-.3-1.207-.452-1.508-.6,0-.151-1.508-5.279.754-8.6C25.689,3.62,29.912,0,36.1,0c4.977,0,11.312,2.866,11.312,6.938,1.659-.6,2.564.151,3.469,1.207A13.135,13.135,0,0,1,52.839,15.385Z" transform="translate(-20.973)"/>
          </g>
          <path id="Path_236" data-name="Path 236" class="cls-6" d="M45.471,17.671C45.018,20.235,43.812,22.2,42.6,22.5a.673.673,0,0,1-.754,0c-1.659-.3-2.564-3.017-2.112-6.033a9.155,9.155,0,0,1,1.81-4.223,1.527,1.527,0,0,1,1.056-.6.962.962,0,0,1,.9,0h0C45.018,11.94,45.923,14.655,45.471,17.671Z" transform="translate(-9.91 5.858)"/>
          <path id="Path_237" data-name="Path 237" class="cls-7" d="M51.452,21.872a6.533,6.533,0,0,0-.151-.754c-.151-.151,0-.6,0-.9h0c0-.452,0-.6.151-.754h0c0-.3.151-.452,0-.9l-.3-.3a.907.907,0,0,0-.6-.151,1.075,1.075,0,0,0-.9.452h0a6.3,6.3,0,0,0-1.659,2.262c-.754,1.357-1.961,3.62-4.072,3.017-1.207-.452-1.81-1.961-3.167-2.564a17,17,0,0,0-2.715-.452c-1.81-.151-4.827-.452-6.486.3-1.207.6-1.056,2.262-2.715,2.413a5.422,5.422,0,0,1-1.659-.3h0a2.028,2.028,0,0,1-1.056-.9A10.22,10.22,0,0,1,24,18.856h0a7.353,7.353,0,0,1-.452-1.056,1.815,1.815,0,0,0-1.81,1.508h0a1.288,1.288,0,0,0,0,1.056h0c0,1.056.452,2.262.452,3.318,1.056,1.659,1.207,4.072,2.715,5.43.3-1.508,1.357.452,1.81,1.056a.527.527,0,0,0,.151.3h0a7.257,7.257,0,0,0,1.357,1.659h0a8.289,8.289,0,0,0,1.357,1.056c.754.452,1.81.3,2.564.754,1.056.6,2.413,1.357,3.469,1.961,0-.151.151-.3.151-.6,1.659-.151,1.81,1.508,3.469.151a23.015,23.015,0,0,1,2.413-1.659c.3-.151.452-.3.754-.452a9.524,9.524,0,0,0,1.357-.6,13.951,13.951,0,0,0,1.508-.754h0c1.659-.9,3.167-2.112,2.564-3.469,1.508-1.81,2.715-2.715,3.469-5.279C51.3,22.777,51.452,22.325,51.452,21.872Zm-6.486,7.692ZM32.145,25.04a3.88,3.88,0,0,1,2.112-.754,4.215,4.215,0,0,1,3.318-.3c.9.3,1.81,0,2.564.452A2.875,2.875,0,0,1,41.8,27c0,.9-1.659,2.413-2.564,1.961-.9-.3-1.508-1.81-2.564-1.81-.9.151-.754,1.357-1.357,1.961a.527.527,0,0,1-.3.151h-.6a7.742,7.742,0,0,1-1.508-.6C31.844,28.056,30.788,26.246,32.145,25.04Z" transform="translate(-19.058 9.048)"/>
          <path id="Path_238" data-name="Path 238" class="cls-7" d="M33.582,4.6a10.707,10.707,0,0,0-2.112,1.508A21.433,21.433,0,0,0,27.7,9.728a18.054,18.054,0,0,1,2.715-4.676Z" transform="translate(-15.97 2.338)"/>
          <path id="Path_239" data-name="Path 239" class="cls-7" d="M30.674,4.9A15.066,15.066,0,0,0,26.3,7.917a6.813,6.813,0,0,1,1.659-2.564c.3-.151.754-.151,1.056-.3A6.764,6.764,0,0,0,30.674,4.9Z" transform="translate(-16.682 2.491)"/>
        </g>
        <g id="Group_173" data-name="Group 173" transform="translate(32.564 17.496)">
          <path id="Path_240" data-name="Path 240" class="cls-8" d="M43.567,11.6c-3.017,0-6.335.9-7.24.9s-4.223-.9-7.24-.9a41.684,41.684,0,0,0-6.787.754v2.112l1.056.3c0,2.564,1.357,7.089,6.184,7.089s5.581-5.279,5.732-6.033a1.217,1.217,0,0,1,2.413,0c.151.754.9,6.033,5.732,6.033S49.6,17.332,49.6,14.767l1.056-.3V12.354A54.291,54.291,0,0,0,43.567,11.6Zm-8.9,2.866c0,3.017-2.262,6.184-5.128,6.184s-4.977-1.659-5.279-4.374a2.8,2.8,0,0,1,2.262-3.318c1.508-.452,7.843-.6,8.145,1.508Zm13.876,1.659c-.3,2.715-2.413,4.374-5.279,4.374s-5.128-3.017-5.128-6.184v-.151c.151-2.112,6.637-1.81,8.145-1.508C47.941,13.259,48.846,14.466,48.544,16.125Z" transform="translate(-21.244 -11.6)"/>
          <path id="Path_241" data-name="Path 241" class="cls-9" d="M43.207,15.841c-.3,2.715-2.413,4.374-5.279,4.374S32.8,17.2,32.8,14.031V13.88c.151-2.112,6.637-1.81,8.145-1.508C42.6,12.975,43.509,14.182,43.207,15.841Z" transform="translate(-15.907 -11.316)"/>
          <path id="Path_242" data-name="Path 242" class="cls-9" d="M34.014,13.969h0c0,3.167-2.262,6.184-5.128,6.184s-4.977-1.659-5.279-4.374a2.8,2.8,0,0,1,2.262-3.318C27.377,12.159,33.712,12.008,34.014,13.969Z" transform="translate(-20.59 -11.254)"/>
          <rect id="Rectangle_81" data-name="Rectangle 81" class="cls-10" width="1.207" height="1.961" transform="translate(0 0.754)"/>
          <rect id="Rectangle_82" data-name="Rectangle 82" class="cls-10" width="1.056" height="1.961" transform="translate(29.11 0.754)"/>
        </g>
        <path id="Path_243" data-name="Path 243" class="cls-2" d="M13.219,38.1V70.83L.7,61.78Z" transform="translate(0.34 19.366)"/>
        <path id="Path_244" data-name="Path 244" class="cls-11" d="M25.334,54.918a8.745,8.745,0,0,1,6.184,10.709h0a8.745,8.745,0,0,1-10.709,6.184L6.48,67.889A8.745,8.745,0,0,1,.3,57.18h0A8.745,8.745,0,0,1,11.005,51Z" transform="translate(-0.01 25.776)"/>
        <path id="Path_245" data-name="Path 245" class="cls-2" d="M54.8,38.1V70.83l12.368-9.05Z" transform="translate(27.839 19.366)"/>
        <path id="Path_246" data-name="Path 246" class="cls-11" d="M49.08,54.918A8.745,8.745,0,0,0,42.9,65.627h0a8.745,8.745,0,0,0,10.709,6.184l14.329-3.922A8.745,8.745,0,0,0,74.118,57.18h0A8.745,8.745,0,0,0,63.409,51Z" transform="translate(21.643 25.776)"/>
        <g id="Group_174" data-name="Group 174" transform="translate(15.821 56.41)">
          <path id="Path_247" data-name="Path 247" class="cls-12" d="M74.9,40.259V78.721a1.674,1.674,0,0,1-1.659,1.659H12.159A1.674,1.674,0,0,1,10.5,78.721V40.259A1.674,1.674,0,0,1,12.159,38.6H73.094A1.712,1.712,0,0,1,74.9,40.259Z" transform="translate(-10.5 -36.79)"/>
          <path id="Path_248" data-name="Path 248" class="cls-10" d="M74.9,39.059v1.81a1.674,1.674,0,0,0-1.659-1.659H12.159A1.674,1.674,0,0,0,10.5,40.869v-1.81A1.674,1.674,0,0,1,12.159,37.4H73.094A1.712,1.712,0,0,1,74.9,39.059Z" transform="translate(-10.5 -37.4)"/>
        </g>
      </g>
      <path id="Path_249" data-name="Path 249" class="cls-13" d="M53.2,51.8V70.05l5.581-1.508Z" transform="translate(27.036 26.33)"/>
      <path id="Path_250" data-name="Path 250" class="cls-13" d="M12.381,51.8V70.05L6.8,68.542Z" transform="translate(3.451 26.33)"/>
      <circle id="Ellipse_10" data-name="Ellipse 10" class="cls-14" cx="2.866" cy="2.866" r="2.866" transform="translate(45.244 71.342)"/>
    </g>
  </g>
</svg>
