<svg xmlns="http://www.w3.org/2000/svg" viewBox="0 0 63.579 100">
  <defs>
    <style>
      .cls-1 {
        fill: #45b549;
      }

      .cls-2 {
        fill: #f16730;
      }

      .cls-3 {
        fill: #ffed00;
      }
    </style>
  </defs>
  <g id="flower" transform="translate(-71.48 0)">
    <path id="Path_577" data-name="Path 577" class="cls-1" d="M187.07,243.7a1.855,1.855,0,0,1,3.557,1.019c0,.061-6.114,19.79,19.872,32.457a1.859,1.859,0,0,1-1.63,3.342h0C180.029,266.478,187.06,243.774,187.07,243.7Z" transform="translate(-85.574 -180.709)"/>
    <path id="Path_578" data-name="Path 578" class="cls-2" d="M96.238,5.488a7.256,7.256,0,0,1,14.073,0A7.256,7.256,0,0,1,122.54,12.53a7.256,7.256,0,0,1,7.031,12.229,7.256,7.256,0,0,1,0,14.073A7.256,7.256,0,0,1,122.53,51.06,7.256,7.256,0,0,1,110.3,58.092a7.256,7.256,0,0,1-14.073,0A7.256,7.256,0,0,1,84,51.05a7.256,7.256,0,0,1-7.031-12.229,7.256,7.256,0,0,1,0-14.073A7.256,7.256,0,0,1,84.009,12.52,7.256,7.256,0,0,1,96.238,5.478Z" transform="translate(0 0)"/>
    <circle id="Ellipse_41" data-name="Ellipse 41" class="cls-3" cx="12.708" cy="12.708" r="12.708" transform="translate(90.572 19.041)"/>
    <g id="Group_347" data-name="Group 347" transform="translate(75.642 62.101)">
      <ellipse id="Ellipse_42" data-name="Ellipse 42" class="cls-1" cx="13.136" cy="7.317" rx="13.136" ry="7.317" transform="translate(24.96 22.095) rotate(-161.831)"/>
      <ellipse id="Ellipse_43" data-name="Ellipse 43" class="cls-1" cx="6.563" cy="11.76" rx="6.563" ry="11.76" transform="translate(33.701 28.317) rotate(-108.169)"/>
    </g>
  </g>
</svg>
