<svg xmlns="http://www.w3.org/2000/svg" viewBox="0 0 119.393 100">
  <defs>
    <style>
      .cls-1 {
        fill: #95ccc2;
      }

      .cls-2 {
        fill: #f4f3d5;
      }

      .cls-3 {
        fill: #ffcd6b;
      }

      .cls-4 {
        fill: #e5e3c3;
      }

      .cls-5 {
        fill: #5cb57c;
      }

      .cls-6 {
        fill: #5e9e73;
      }

      .cls-7 {
        fill: #6fada1;
      }

      .cls-8 {
        fill: #ffb64c;
      }
    </style>
  </defs>
  <g id="flowers" transform="translate(0)">
    <path id="Path_579" data-name="Path 579" class="cls-1" d="M414.291,57.379a6.132,6.132,0,1,0,0,8.673A6.132,6.132,0,0,0,414.291,57.379Zm0,0" transform="translate(-309.655 -42.622)"/>
    <path id="Path_580" data-name="Path 580" class="cls-2" d="M384.018,29.372c8.554-1.34,8.554-7.714,0-9.054,5.1-7,.594-11.5-6.4-6.4-1.34-8.555-7.714-8.555-9.054,0-7-5.1-11.5-.595-6.4,6.4-8.555,1.34-8.555,7.714,0,9.054-5.1,7-.595,11.5,6.4,6.4,1.34,8.555,7.714,8.555,9.054,0C384.612,40.871,389.118,36.366,384.018,29.372Zm0,0" transform="translate(-272.79 -5.751)"/>
    <path id="Path_581" data-name="Path 581" class="cls-3" d="M414.291,57.379a6.132,6.132,0,1,0,0,8.673A6.132,6.132,0,0,0,414.291,57.379Zm0,0" transform="translate(-309.655 -42.622)"/>
    <path id="Path_582" data-name="Path 582" class="cls-1" d="M240.169,57.379a6.132,6.132,0,1,0,0,8.672A6.133,6.133,0,0,0,240.169,57.379Zm0,0" transform="translate(-176.137 -42.622)"/>
    <path id="Path_583" data-name="Path 583" class="cls-2" d="M209.893,29.372c8.555-1.34,8.555-7.714,0-9.054,5.1-7,.595-11.5-6.4-6.4-1.34-8.555-7.714-8.555-9.054,0-7-5.1-11.5-.595-6.4,6.4-8.555,1.34-8.555,7.714,0,9.054-5.1,7-.595,11.5,6.4,6.4,1.34,8.555,7.714,8.555,9.054,0C210.488,40.871,214.993,36.366,209.893,29.372Zm0,0" transform="translate(-139.269 -5.751)"/>
    <path id="Path_584" data-name="Path 584" class="cls-3" d="M240.169,57.379a6.132,6.132,0,1,0,0,8.672A6.133,6.133,0,0,0,240.169,57.379Zm0,0" transform="translate(-176.137 -42.622)"/>
    <path id="Path_585" data-name="Path 585" class="cls-1" d="M66.047,57.375a6.132,6.132,0,1,0,0,8.673A6.132,6.132,0,0,0,66.047,57.375Zm0,0" transform="translate(-42.619 -42.619)"/>
    <path id="Path_586" data-name="Path 586" class="cls-2" d="M35.768,29.372c8.555-1.34,8.555-7.714,0-9.054,5.1-7,.595-11.5-6.4-6.4-1.34-8.555-7.714-8.555-9.054,0-6.995-5.1-11.5-.595-6.4,6.4-8.555,1.34-8.555,7.714,0,9.054-5.1,7-.594,11.5,6.4,6.4,1.34,8.555,7.714,8.555,9.054,0C36.363,40.871,40.868,36.366,35.768,29.372Zm0,0" transform="translate(-5.748 -5.751)"/>
    <path id="Path_587" data-name="Path 587" class="cls-4" d="M20.908,43.28c-8.555-1.34-8.555-7.714,0-9.054-2.242-3.075-2.626-5.668-1.761-7.177-6.309-3.8-10.044.579-5.234,7.177-8.555,1.34-8.554,7.714,0,9.054-4.81,6.6-1.075,10.978,5.234,7.177C18.282,48.948,18.667,46.355,20.908,43.28Zm0,0" transform="translate(-5.749 -19.659)"/>
    <path id="Path_588" data-name="Path 588" class="cls-5" d="M92.4,210.433c2.866-2.866,3.413-7.247,3.5-9.339a1.137,1.137,0,0,0-1.184-1.184c-2.091.091-6.473.638-9.338,3.5s-3.412,7.246-3.5,9.337a1.138,1.138,0,0,0,1.185,1.185C85.152,213.845,89.533,213.3,92.4,210.433Zm0,0" transform="translate(-62.782 -153.293)"/>
    <path id="Path_589" data-name="Path 589" class="cls-5" d="M25.225,187.566c-2.865-2.866-3.412-7.247-3.5-9.339a1.135,1.135,0,0,1,1.184-1.184c2.091.09,6.473.638,9.339,3.5s3.412,7.247,3.5,9.339a1.136,1.136,0,0,1-1.184,1.184C32.472,190.978,28.091,190.431,25.225,187.566Zm0,0" transform="translate(-16.657 -135.758)"/>
    <path id="Path_590" data-name="Path 590" class="cls-6" d="M32.22,187.566c-2.851-2.852-3.407-7.2-3.5-9.308a17.68,17.68,0,0,0-5.812-1.215,1.135,1.135,0,0,0-1.184,1.184c.09,2.091.638,6.473,3.5,9.339s7.246,3.412,9.338,3.5a1.135,1.135,0,0,0,1.184-1.184c0-.01,0-.021,0-.031A10.754,10.754,0,0,1,32.22,187.566Zm0,0" transform="translate(-16.657 -135.758)"/>
    <path id="Path_591" data-name="Path 591" class="cls-5" d="M266.523,210.433c2.866-2.866,3.412-7.247,3.5-9.339a1.137,1.137,0,0,0-1.184-1.184c-2.092.091-6.474.638-9.339,3.5s-3.412,7.246-3.5,9.337a1.138,1.138,0,0,0,1.184,1.185C259.277,213.845,263.659,213.3,266.523,210.433Zm0,0" transform="translate(-196.303 -153.293)"/>
    <path id="Path_592" data-name="Path 592" class="cls-5" d="M199.351,187.566c-2.865-2.866-3.412-7.247-3.5-9.339a1.135,1.135,0,0,1,1.184-1.184c2.091.09,6.473.638,9.338,3.5s3.413,7.247,3.5,9.339a1.136,1.136,0,0,1-1.184,1.184C206.6,190.978,202.215,190.431,199.351,187.566Zm0,0" transform="translate(-150.178 -135.758)"/>
    <path id="Path_593" data-name="Path 593" class="cls-5" d="M440.648,210.433c2.866-2.866,3.412-7.247,3.5-9.339a1.137,1.137,0,0,0-1.185-1.184c-2.091.091-6.473.638-9.338,3.5s-3.413,7.246-3.5,9.337a1.138,1.138,0,0,0,1.184,1.185C433.4,213.845,437.783,213.3,440.648,210.433Zm0,0" transform="translate(-329.824 -153.293)"/>
    <path id="Path_594" data-name="Path 594" class="cls-5" d="M373.473,187.566c-2.866-2.866-3.413-7.247-3.5-9.339a1.136,1.136,0,0,1,1.184-1.184c2.091.09,6.473.638,9.339,3.5s3.412,7.247,3.5,9.339a1.136,1.136,0,0,1-1.185,1.184C380.719,190.978,376.337,190.431,373.473,187.566Zm0,0" transform="translate(-283.696 -135.758)"/>
    <path id="Path_595" data-name="Path 595" class="cls-3" d="M66.047,57.375a6.132,6.132,0,1,0,0,8.673A6.132,6.132,0,0,0,66.047,57.375Zm0,0" transform="translate(-42.619 -42.619)"/>
    <path id="Path_596" data-name="Path 596" class="cls-1" d="M132,341.688l-5.719,18.574H29.336l-5.719-18.574Zm0,0" transform="translate(-18.11 -262.01)"/>
    <path id="Path_597" data-name="Path 597" class="cls-7" d="M23.617,341.688l5.719,18.574h6.995l-5.719-18.574Zm0,0" transform="translate(-18.11 -262.01)"/>
    <path id="Path_598" data-name="Path 598" class="cls-3" d="M123.685,291.078l-3.632,11.8H11.675l-3.632-11.8Zm0,0" transform="translate(-6.167 -223.202)"/>
    <path id="Path_599" data-name="Path 599" class="cls-8" d="M8.043,291.078l3.632,11.8h6.995l-3.633-11.8Zm0,0" transform="translate(-6.167 -223.202)"/>
    <path id="Path_600" data-name="Path 600" d="M55.036,51.671a4.384,4.384,0,1,1-3.438,3.86,1.748,1.748,0,0,0-1.327-1.866,1.786,1.786,0,0,0-.245-.044,1.751,1.751,0,0,0-1.909,1.572,7.891,7.891,0,0,0,2.272,6.335,8.093,8.093,0,0,0,.614.553,7.881,7.881,0,1,0,3.3-13.831,1.749,1.749,0,0,0,.734,3.42Zm0,0" transform="translate(-36.868 -36.864)"/>
    <path id="Path_601" data-name="Path 601" d="M235.67,61.535a7.889,7.889,0,1,0-5.573,2.3A7.89,7.89,0,0,0,235.67,61.535ZM227,59.063a4.384,4.384,0,1,1,6.2,0A4.389,4.389,0,0,1,227,59.063Zm0,0" transform="translate(-170.401 -36.87)"/>
    <path id="Path_602" data-name="Path 602" d="M398.649,50.4a7.881,7.881,0,1,0,11.145,0A7.891,7.891,0,0,0,398.649,50.4Zm2.473,8.673a4.384,4.384,0,1,1,6.2,0A4.389,4.389,0,0,1,401.122,59.076Zm0,0" transform="translate(-303.922 -36.883)"/>
    <path id="Path_603" data-name="Path 603" d="M119.393,19.093c0-2.039-1.466-4.426-5.391-5.677,1.89-3.658,1.239-6.382-.2-7.823s-4.165-2.092-7.823-.2C104.727,1.466,102.34,0,100.3,0s-4.426,1.466-5.677,5.391c-3.659-1.889-6.382-1.239-7.823.2s-2.093,4.164-.2,7.823c-3.926,1.251-5.392,3.637-5.392,5.677s1.466,4.426,5.392,5.676c-1.891,3.659-1.24,6.382.2,7.823s4.165,2.093,7.823.2c.9,2.835,2.4,4.386,3.928,5.029v6.285c-.166-.189-.338-.376-.519-.557-3.237-3.237-7.968-3.9-10.5-4.013a2.886,2.886,0,0,0-3.007,3.007c.11,2.532.777,7.262,4.013,10.5,3.04,3.039,7.4,3.813,10.012,3.987v9.1H61.445V62.364c2.616-.174,6.972-.947,10.011-3.987,3.237-3.236,3.9-7.968,4.013-10.5a2.885,2.885,0,0,0-3.007-3.008c-2.531.109-7.262.777-10.5,4.013-.181.181-.354.368-.518.558V37.824c1.529-.643,3.024-2.194,3.928-5.029,3.659,1.89,6.382,1.239,7.823-.2s2.092-4.164.2-7.823c3.926-1.25,5.391-3.636,5.391-5.676s-1.465-4.426-5.391-5.677c1.89-3.658,1.24-6.382-.2-7.823s-4.165-2.092-7.823-.2C64.122,1.466,61.736,0,59.7,0S55.271,1.466,54.02,5.391c-3.658-1.889-6.382-1.239-7.823.2s-2.092,4.164-.2,7.823c-3.926,1.251-5.392,3.637-5.392,5.677s1.466,4.426,5.392,5.676c-1.89,3.659-1.24,6.382.2,7.823s4.165,2.093,7.823.2c.9,2.835,2.4,4.387,3.928,5.03v6.285c-.165-.189-.337-.376-.519-.558-3.236-3.236-7.967-3.9-10.5-4.012a2.885,2.885,0,0,0-3.007,3.007c.109,2.532.777,7.262,4.013,10.5,3.04,3.039,7.4,3.812,10.012,3.986v9.1H20.841V62.364c2.616-.174,6.972-.947,10.012-3.987,3.236-3.236,3.9-7.967,4.013-10.5a2.886,2.886,0,0,0-3.007-3.007c-2.532.109-7.263.777-10.5,4.013-.181.181-.353.368-.519.558V37.824c1.529-.643,3.025-2.2,3.928-5.03,3.659,1.89,6.382,1.24,7.823-.2s2.093-4.164.2-7.823c3.926-1.25,5.392-3.636,5.392-5.676s-1.466-4.426-5.392-5.677c1.89-3.658,1.24-6.382-.2-7.823s-4.164-2.092-7.823-.2C23.519,1.466,21.133,0,19.093,0h0c-2.039,0-4.426,1.466-5.677,5.391-3.658-1.889-6.382-1.239-7.823.2s-2.092,4.164-.2,7.823C1.466,14.667,0,17.054,0,19.093s1.466,4.426,5.391,5.676c-1.889,3.659-1.239,6.382.2,7.824s4.164,2.092,7.823.2c.9,2.835,2.4,4.386,3.928,5.03v6.284c-.166-.189-.338-.376-.519-.557-3.237-3.237-7.968-3.9-10.5-4.013a2.886,2.886,0,0,0-3.007,3.007c.109,2.532.777,7.262,4.013,10.5,3.04,3.039,7.4,3.813,10.012,3.987v9.1H1.876A1.748,1.748,0,0,0,.2,68.391l9.35,30.375A1.748,1.748,0,0,0,11.226,100h96.941a1.748,1.748,0,0,0,1.672-1.234l1.581-5.136a1.749,1.749,0,1,0-3.342-1.03l-1.2,3.9H12.517L7.876,81.427H111.517l-1.376,4.467a1.749,1.749,0,0,0,3.343,1.029l5.7-18.532a1.748,1.748,0,0,0-1.671-2.263h-15.47V62.364c2.617-.174,6.973-.947,10.012-3.986,3.236-3.236,3.9-7.968,4.013-10.5a2.885,2.885,0,0,0-3.007-3.006c-2.531.109-7.262.776-10.5,4.013-.181.181-.354.368-.519.557V37.825c1.53-.644,3.025-2.2,3.929-5.03,3.658,1.89,6.381,1.239,7.823-.2s2.092-4.165.2-7.824C117.927,23.519,119.393,21.133,119.393,19.093ZM71.933,48.409c-.16,1.9-.757,5.3-2.949,7.5s-5.6,2.788-7.5,2.948c.16-1.9.758-5.3,2.948-7.495S70.037,48.568,71.933,48.409Zm-16.094-20a1.748,1.748,0,0,0-1.7.2c-2.942,2.145-4.916,2.066-5.47,1.512-1.043-1.043.373-3.909,1.512-5.47a1.749,1.749,0,0,0-1.143-2.757c-3.6-.564-4.938-2.016-4.938-2.8,0-1.476,3.03-2.5,4.938-2.8a1.749,1.749,0,0,0,1.143-2.758c-2.144-2.941-2.066-4.915-1.512-5.469,1.043-1.043,3.909.374,5.47,1.512A1.749,1.749,0,0,0,56.9,8.436c.563-3.6,2.016-4.939,2.8-4.939,1.476,0,2.5,3.03,2.8,4.939a1.749,1.749,0,0,0,2.757,1.142c2.941-2.144,4.916-2.065,5.47-1.512,1.043,1.043-.374,3.909-1.512,5.469a1.749,1.749,0,0,0,1.143,2.758c3.6.563,4.938,2.016,4.938,2.8,0,1.477-3.029,2.5-4.938,2.8a1.749,1.749,0,0,0-1.143,2.757c2.144,2.942,2.065,4.916,1.512,5.47-1.044,1.043-3.909-.374-5.47-1.512A1.749,1.749,0,0,0,62.5,29.75c-.563,3.6-2.016,4.939-2.8,4.939-1.477,0-2.5-3.03-2.8-4.939A1.75,1.75,0,0,0,55.839,28.405Zm-5.43,22.166c-2.192-2.192-2.788-5.6-2.949-7.495,1.9.159,5.3.757,7.5,2.948s2.789,5.6,2.948,7.495C56.009,53.36,52.6,52.763,50.409,50.571ZM6.857,43.076a14.773,14.773,0,0,1,5.4,1.449,8.407,8.407,0,0,1,2.091,1.5c2.059,2.059,2.711,5.19,2.915,7.134.013.126.024.246.034.361-1.9-.159-5.3-.757-7.495-2.948S7.017,44.972,6.857,43.076Zm24.471,5.332c-.16,1.9-.757,5.3-2.949,7.5s-5.6,2.788-7.5,2.948c.16-1.9.757-5.3,2.949-7.495S29.433,48.568,31.329,48.409Zm-16.094-20a1.75,1.75,0,0,0-1.7.2c-.191.139-.378.269-.561.39-2.631,1.741-4.391,1.64-4.908,1.122-1.043-1.043.374-3.909,1.512-5.469a1.749,1.749,0,0,0-1.143-2.758c-3.6-.563-4.938-2.016-4.938-2.8,0-1.477,3.03-2.5,4.939-2.8a1.749,1.749,0,0,0,1.142-2.757C7.434,10.594,7.513,8.62,8.066,8.066c.928-.927,3.3.092,4.909,1.13.2.128.389.257.561.383a1.749,1.749,0,0,0,2.757-1.142c.564-3.6,2.017-4.939,2.8-4.939,1.476,0,2.5,3.03,2.8,4.939a1.749,1.749,0,0,0,2.758,1.142c2.941-2.144,4.916-2.065,5.469-1.512,1.043,1.044-.373,3.909-1.512,5.47a1.749,1.749,0,0,0,1.143,2.757c3.6.564,4.938,2.017,4.938,2.8,0,1.476-3.029,2.5-4.938,2.8a1.749,1.749,0,0,0-1.143,2.758c2.145,2.941,2.066,4.915,1.512,5.469-1.043,1.043-3.909-.373-5.469-1.512a1.749,1.749,0,0,0-2.758,1.143c-.563,3.6-2.016,4.938-2.8,4.938-1.477,0-2.5-3.029-2.8-4.938A1.75,1.75,0,0,0,15.235,28.405ZM112.594,77.93H6.8l-2.556-8.3H115.15Zm-1.267-47.81c-1.042,1.043-3.908-.373-5.469-1.512a1.748,1.748,0,0,0-2.757,1.143c-.564,3.6-2.017,4.938-2.8,4.938-1.477,0-2.5-3.029-2.8-4.938a1.749,1.749,0,0,0-2.757-1.143c-2.941,2.144-4.916,2.066-5.469,1.512-1.044-1.043.373-3.909,1.511-5.469a1.749,1.749,0,0,0-1.142-2.758c-3.6-.563-4.939-2.016-4.939-2.8,0-1.477,3.03-2.5,4.939-2.8a1.749,1.749,0,0,0,1.142-2.757c-2.144-2.942-2.065-4.916-1.511-5.47,1.043-1.042,3.908.374,5.469,1.512A1.749,1.749,0,0,0,97.5,8.436c.564-3.6,2.017-4.939,2.8-4.939,1.476,0,2.5,3.03,2.8,4.939a1.748,1.748,0,0,0,2.757,1.142c2.941-2.144,4.916-2.065,5.469-1.512,1.043,1.044-.374,3.909-1.512,5.47a1.749,1.749,0,0,0,1.143,2.757c3.6.564,4.938,2.016,4.938,2.8,0,1.476-3.029,2.5-4.938,2.8a1.749,1.749,0,0,0-1.143,2.758C111.959,27.592,111.881,29.566,111.327,30.12ZM91.013,50.571c-2.192-2.192-2.789-5.6-2.949-7.495,1.9.159,5.3.757,7.5,2.948s2.789,5.6,2.948,7.495C96.613,53.36,93.2,52.763,91.013,50.571Zm21.524-2.162c-.16,1.9-.758,5.3-2.95,7.5s-5.6,2.788-7.495,2.948c.159-1.895.757-5.3,2.948-7.495S110.641,48.568,112.537,48.409Zm0,0"/>
  </g>
</svg>
