<svg xmlns="http://www.w3.org/2000/svg" viewBox="0 0 92.181 100">
  <defs>
    <style>
      .cls-1 {
        fill: #45b549;
      }

      .cls-2 {
        fill: #009549;
      }
    </style>
  </defs>
  <g id="leaf" transform="translate(-15.643 -0.001)">
    <path id="Path_575" data-name="Path 575" class="cls-1" d="M115.516,22.472C143.783,19.363,152.969,1.481,153,1.481a1.819,1.819,0,0,1,3.369.36c9.4,31.866,4.268,53.837-6.517,66.871a40.574,40.574,0,0,1-15.583,11.625,38.823,38.823,0,0,1-17.692,3c-11.585-.81-22.16-7-27.068-18.082A30.125,30.125,0,0,1,87.1,56.327a30.688,30.688,0,0,1,3.459-17.892A29.687,29.687,0,0,1,104.82,25.321a35.92,35.92,0,0,1,10.7-2.849Z" transform="translate(-53.458 -0.375)"/>
    <path id="Path_576" data-name="Path 576" class="cls-2" d="M99.341,1.775a1.819,1.819,0,1,1,3.618.31c0,.09-1.589,20.991-21.99,42.142l-.19.2a106.04,106.04,0,0,1-15.7,13.254L77.331,59.96a1.819,1.819,0,0,1-.61,3.578l-15.993-3C46.144,69.776,21.425,78.3,19.266,98.423a1.819,1.819,0,0,1-3.618-.36c2.579-24.12,27.088-30.327,43.621-40.872l.23-.15a105.059,105.059,0,0,0,18.222-14.6L76.271,28.094a1.819,1.819,0,0,1,3.606-.484c.005.041.01.083.012.124l1.1,11.135c17-19.092,18.342-37.014,18.352-37.094Z" transform="translate(0 0)"/>
  </g>
</svg>
