<svg xmlns="http://www.w3.org/2000/svg" xmlns:xlink="http://www.w3.org/1999/xlink" viewBox="0 0 130 130">
  <defs>
    <style>
      .cls-1 {
        fill: #f6f6f6;
      }

      .cls-2 {
        fill: #cecece;
      }

      .cls-3 {
        fill: #fff;
      }

      .cls-4 {
        fill: #ff6110;
      }

      .cls-5 {
        fill: #e0e0e0;
      }

      .cls-6 {
        fill: #ea4214;
      }

      .cls-7 {
        fill: #366381;
      }

      .cls-8 {
        fill: #2c5167;
      }

      .cls-9 {
        clip-path: url(#clip-path);
      }

      .cls-10 {
        fill: #00e5e8;
      }

      .cls-11 {
        fill: #00f1f1;
      }

      .cls-12 {
        fill: #003454;
      }

      .cls-13 {
        clip-path: url(#clip-path-4);
      }
    </style>
    <clipPath id="clip-path">
      <rect id="Rectangle_53" data-name="Rectangle 53" width="59.807" height="40.047"/>
    </clipPath>
    <clipPath id="clip-path-4">
      <rect id="Rectangle_60" data-name="Rectangle 60" width="24.956" height="50.409"/>
    </clipPath>
  </defs>
  <g id="market" transform="translate(-497 -1104)">
    <circle id="Ellipse_7" data-name="Ellipse 7" class="cls-1" cx="65" cy="65" r="65" transform="translate(497 1104)"/>
    <g id="Group_164" data-name="Group 164" transform="translate(502 1119)">
      <g id="Group_163" data-name="Group 163">
        <g id="Group_125" data-name="Group 125" transform="translate(5.079 4.495)">
          <rect id="Rectangle_49" data-name="Rectangle 49" class="cls-2" width="109.837" height="95.505"/>
        </g>
        <g id="Group_149" data-name="Group 149" transform="translate(0 9.691)">
          <g id="Group_137" data-name="Group 137">
            <g id="Group_126" data-name="Group 126">
              <path id="Path_190" data-name="Path 190" class="cls-3" d="M5.079,33.2,0,63H10.917l4.524-29.8Z" transform="translate(0 -33.2)"/>
            </g>
            <g id="Group_127" data-name="Group 127" transform="translate(10.917)">
              <path id="Path_191" data-name="Path 191" class="cls-4" d="M41.924,33.2,37.4,63H48.287l4-29.8Z" transform="translate(-37.4 -33.2)"/>
            </g>
            <g id="Group_128" data-name="Group 128" transform="translate(21.804)">
              <path id="Path_192" data-name="Path 192" class="cls-3" d="M78.7,33.2,74.7,63H85.617l3.444-29.8Z" transform="translate(-74.7 -33.2)"/>
            </g>
            <g id="Group_129" data-name="Group 129" transform="translate(32.72)">
              <path id="Path_193" data-name="Path 193" class="cls-4" d="M115.544,33.2,112.1,63h10.917l2.89-29.8Z" transform="translate(-112.1 -33.2)"/>
            </g>
            <g id="Group_130" data-name="Group 130" transform="translate(43.637)">
              <path id="Path_194" data-name="Path 194" class="cls-3" d="M152.39,33.2,149.5,63h10.887l1.459-29.8Z" transform="translate(-149.5 -33.2)"/>
            </g>
            <g id="Group_131" data-name="Group 131" transform="translate(104.524)">
              <path id="Path_195" data-name="Path 195" class="cls-3" d="M368.462,33.2H358.1L362.653,63h10.887Z" transform="translate(-358.1 -33.2)"/>
            </g>
            <g id="Group_132" data-name="Group 132" transform="translate(94.162)">
              <path id="Path_196" data-name="Path 196" class="cls-4" d="M322.6,33.2l4,29.8h10.917l-4.553-29.8Z" transform="translate(-322.6 -33.2)"/>
            </g>
            <g id="Group_133" data-name="Group 133" transform="translate(83.8)">
              <path id="Path_197" data-name="Path 197" class="cls-3" d="M287.1,33.2,290.544,63h10.917l-4-29.8Z" transform="translate(-287.1 -33.2)"/>
            </g>
            <g id="Group_134" data-name="Group 134" transform="translate(73.438)">
              <path id="Path_198" data-name="Path 198" class="cls-4" d="M251.6,33.2,254.519,63h10.887l-3.444-29.8Z" transform="translate(-251.6 -33.2)"/>
            </g>
            <g id="Group_135" data-name="Group 135" transform="translate(63.981)">
              <path id="Path_199" data-name="Path 199" class="cls-3" d="M219.2,33.2,220.659,63h10.917l-2.919-29.8Z" transform="translate(-219.2 -33.2)"/>
            </g>
            <g id="Group_136" data-name="Group 136" transform="translate(54.524)">
              <path id="Path_200" data-name="Path 200" class="cls-4" d="M195.352,33.2h-7.093L186.8,63h10.917l-1.459-29.8Z" transform="translate(-186.8 -33.2)"/>
            </g>
          </g>
          <g id="Group_138" data-name="Group 138" transform="translate(0 29.802)">
            <path id="Path_201" data-name="Path 201" class="cls-5" d="M5.458,140.758a5.469,5.469,0,0,0,5.458-5.458H0A5.469,5.469,0,0,0,5.458,140.758Z" transform="translate(0 -135.3)"/>
          </g>
          <g id="Group_139" data-name="Group 139" transform="translate(10.917 29.802)">
            <path id="Path_202" data-name="Path 202" class="cls-6" d="M42.829,140.758a5.469,5.469,0,0,0,5.458-5.458H37.4A5.444,5.444,0,0,0,42.829,140.758Z" transform="translate(-37.4 -135.3)"/>
          </g>
          <g id="Group_140" data-name="Group 140" transform="translate(21.804 29.802)">
            <path id="Path_203" data-name="Path 203" class="cls-5" d="M80.158,140.758a5.469,5.469,0,0,0,5.458-5.458H74.7A5.469,5.469,0,0,0,80.158,140.758Z" transform="translate(-74.7 -135.3)"/>
          </g>
          <g id="Group_141" data-name="Group 141" transform="translate(32.72 29.802)">
            <path id="Path_204" data-name="Path 204" class="cls-6" d="M117.558,140.758a5.469,5.469,0,0,0,5.458-5.458H112.1A5.469,5.469,0,0,0,117.558,140.758Z" transform="translate(-112.1 -135.3)"/>
          </g>
          <g id="Group_142" data-name="Group 142" transform="translate(43.608 29.802)">
            <path id="Path_205" data-name="Path 205" class="cls-5" d="M154.858,140.758a5.469,5.469,0,0,0,5.458-5.458H149.4A5.488,5.488,0,0,0,154.858,140.758Z" transform="translate(-149.4 -135.3)"/>
          </g>
          <g id="Group_143" data-name="Group 143" transform="translate(54.524 29.802)">
            <path id="Path_206" data-name="Path 206" class="cls-6" d="M192.258,140.758a5.469,5.469,0,0,0,5.458-5.458H186.8A5.469,5.469,0,0,0,192.258,140.758Z" transform="translate(-186.8 -135.3)"/>
          </g>
          <g id="Group_144" data-name="Group 144" transform="translate(65.441 29.802)">
            <path id="Path_207" data-name="Path 207" class="cls-5" d="M229.658,140.758a5.469,5.469,0,0,0,5.458-5.458H224.2A5.469,5.469,0,0,0,229.658,140.758Z" transform="translate(-224.2 -135.3)"/>
          </g>
          <g id="Group_145" data-name="Group 145" transform="translate(76.328 29.802)">
            <path id="Path_208" data-name="Path 208" class="cls-6" d="M266.958,140.758a5.469,5.469,0,0,0,5.458-5.458H261.5A5.488,5.488,0,0,0,266.958,140.758Z" transform="translate(-261.5 -135.3)"/>
          </g>
          <g id="Group_146" data-name="Group 146" transform="translate(87.245 29.802)">
            <path id="Path_209" data-name="Path 209" class="cls-5" d="M304.358,140.758a5.469,5.469,0,0,0,5.458-5.458H298.9A5.469,5.469,0,0,0,304.358,140.758Z" transform="translate(-298.9 -135.3)"/>
          </g>
          <g id="Group_147" data-name="Group 147" transform="translate(98.161 29.802)">
            <path id="Path_210" data-name="Path 210" class="cls-6" d="M341.758,140.758a5.469,5.469,0,0,0,5.458-5.458H336.3A5.469,5.469,0,0,0,341.758,140.758Z" transform="translate(-336.3 -135.3)"/>
          </g>
          <g id="Group_148" data-name="Group 148" transform="translate(109.048 29.802)">
            <path id="Path_211" data-name="Path 211" class="cls-5" d="M379.058,140.758a5.469,5.469,0,0,0,5.458-5.458H373.6A5.488,5.488,0,0,0,379.058,140.758Z" transform="translate(-373.6 -135.3)"/>
          </g>
        </g>
        <g id="Group_150" data-name="Group 150" transform="translate(5.079)">
          <rect id="Rectangle_50" data-name="Rectangle 50" class="cls-7" width="109.837" height="5.809"/>
        </g>
        <g id="Group_151" data-name="Group 151" transform="translate(5.079 4.378)">
          <rect id="Rectangle_51" data-name="Rectangle 51" class="cls-8" width="109.837" height="2.831"/>
        </g>
        <g id="Group_155" data-name="Group 155" transform="translate(13.631 51.022)">
          <g id="Group_152" data-name="Group 152" class="cls-9">
            <rect id="Rectangle_52" data-name="Rectangle 52" class="cls-10" width="59.807" height="40.047"/>
          </g>
          <g id="Group_153" data-name="Group 153" class="cls-9">
            <rect id="Rectangle_54" data-name="Rectangle 54" class="cls-11" width="52.306" height="10.041" transform="matrix(0.442, -0.897, 0.897, 0.442, -1.201, 41.764)"/>
          </g>
          <g id="Group_154" data-name="Group 154" class="cls-9">
            <rect id="Rectangle_56" data-name="Rectangle 56" class="cls-11" width="52.306" height="3.649" transform="translate(-8.523 39.843) rotate(-63.75)"/>
          </g>
        </g>
        <g id="Group_157" data-name="Group 157" transform="translate(12.201 49.591)">
          <g id="Group_156" data-name="Group 156">
            <path id="Path_212" data-name="Path 212" class="cls-12" d="M104.468,212.807H41.8V169.9h62.668Zm-59.807-2.86h56.947V172.76H44.66Z" transform="translate(-41.8 -169.9)"/>
          </g>
        </g>
        <g id="Group_160" data-name="Group 160" transform="translate(82.458 49.591)">
          <rect id="Rectangle_58" data-name="Rectangle 58" class="cls-10" width="24.956" height="50.409"/>
          <g id="Group_158" data-name="Group 158" class="cls-13">
            <rect id="Rectangle_59" data-name="Rectangle 59" class="cls-11" width="36.398" height="8.406" transform="matrix(0.532, -0.846, 0.846, 0.532, -8.521, 26.196)"/>
          </g>
          <g id="Group_159" data-name="Group 159" class="cls-13">
            <rect id="Rectangle_61" data-name="Rectangle 61" class="cls-11" width="49.124" height="3.911" transform="matrix(0.532, -0.846, 0.846, 0.532, -3.823, 38.825)"/>
          </g>
        </g>
        <g id="Group_162" data-name="Group 162" transform="translate(82.458 49.591)">
          <g id="Group_161" data-name="Group 161">
            <path id="Path_213" data-name="Path 213" class="cls-12" d="M282.5,169.9v50.409h24.956V169.9Zm22.067,2.86v20.928H294.175v-1.751h-6.363v1.751h-2.481V172.76ZM285.36,217.448V196.52h2.481v1.751H294.2V196.52H304.6v20.928Z" transform="translate(-282.5 -169.9)"/>
          </g>
        </g>
      </g>
    </g>
  </g>
</svg>
