<svg xmlns="http://www.w3.org/2000/svg" viewBox="0 0 150 150">
  <defs>
    <style>
      .cls-1 {
        fill: #e67e22;
      }

      .cls-2 {
        fill: #2d3039;
      }

      .cls-3 {
        fill: #3498db;
      }

      .cls-4 {
        fill: #e7eced;
      }

      .cls-5 {
        fill: #00a3d8;
      }

      .cls-6 {
        fill: #2193b0;
      }

      .cls-7 {
        fill: #556180;
      }
    </style>
  </defs>
  <g id="marketing" transform="translate(-588 -1050)">
    <circle id="Ellipse_11" data-name="Ellipse 11" class="cls-1" cx="75" cy="75" r="75" transform="translate(588 1050)"/>
    <g id="_002-megaphone" data-name="002-megaphone" transform="translate(613 1077.1)">
      <path id="XMLID_117_" class="cls-2" d="M6.779,37.9H3.747A3.747,3.747,0,0,1,0,34.153V24.7a3.747,3.747,0,0,1,3.747-3.747H6.779Z" transform="translate(0 12.542)"/>
      <path id="XMLID_116_" class="cls-3" d="M31.169,47.609,8.452,46.228a4.737,4.737,0,0,1-4.4-4.725V22.631a4.117,4.117,0,0,1,3.823-4.106L31.167,17.1V47.609Z" transform="translate(2.815 9.868)"/>
      <path id="XMLID_115_" class="cls-4" d="M57.246,79.463,23.971,62.825a7.091,7.091,0,0,1-3.92-6.34V27.825a7.09,7.09,0,0,1,3.742-6.249L57.07,3.751A7.088,7.088,0,0,1,67.506,10V73.121a7.09,7.09,0,0,1-10.26,6.342" transform="translate(13.931 0)"/>
      <path id="XMLID_114_" class="cls-5" d="M49.695,20.952H48V37.9h1.695a6.8,6.8,0,0,0,6.779-6.779v-3.39a6.8,6.8,0,0,0-6.779-6.779" transform="translate(33.349 12.542)"/>
      <path id="XMLID_113_" class="cls-4" d="M56.693,42.679A1.694,1.694,0,0,1,55.319,40a15.857,15.857,0,0,0,3.073-9.137,16.507,16.507,0,0,0-3.079-9.237,1.695,1.695,0,0,1,2.771-1.952,19.853,19.853,0,0,1,3.7,11.1,19.3,19.3,0,0,1-3.708,11.2,1.7,1.7,0,0,1-1.381.707" transform="translate(38.213 11.153)"/>
      <path id="XMLID_112_" class="cls-6" d="M8.052,34.376v6.062h5.084a1.695,1.695,0,1,1,0,3.39H8.052v3.39h5.084a1.695,1.695,0,0,1,0,3.39H8.052V54h5.084a1.695,1.695,0,1,1,0,3.39H8.052v3.39h5.084a1.695,1.695,0,1,1,0,3.39H8.052v1.1a5.932,5.932,0,1,0,11.863,0V35.115Z" transform="translate(5.594 21.868)"/>
      <path id="XMLID_107_" class="cls-7" d="M43.122,3.751,40,5.423V77.814l3.3,1.649a7.088,7.088,0,0,0,10.258-6.34V10A7.089,7.089,0,0,0,43.122,3.751" transform="translate(27.791 0)"/>
    </g>
  </g>
</svg>
