<svg xmlns="http://www.w3.org/2000/svg" viewBox="0 0 366.593 230">
  <defs>
    <style>
      .cls-1 {
        fill: #6075b0;
      }

      .cls-2 {
        fill: #794061;
      }

      .cls-3 {
        fill: #072859;
      }

      .cls-4 {
        fill: #f3885e;
      }

      .cls-5 {
        fill: #ffbe62;
      }

      .cls-6 {
        fill: #7c4b39;
      }

      .cls-7 {
        fill: #fcbba4;
      }

      .cls-8, .cls-9 {
        fill: #081344;
      }

      .cls-9 {
        opacity: 0.2;
      }

      .cls-10, .cls-11 {
        fill: #0c0f39;
      }

      .cls-10 {
        opacity: 0.62;
      }

      .cls-11 {
        opacity: 0.16;
      }

      .cls-12 {
        fill: #2193b0;
        opacity: 0.54;
      }

      .cls-13 {
        fill: #d26552;
      }

      .cls-14 {
        fill: #ffc7b0;
      }

      .cls-15 {
        fill: #ffbd48;
      }

      .cls-16, .cls-40, .cls-47, .cls-48 {
        fill: #6c1a48;
      }

      .cls-17 {
        fill: #f14747;
      }

      .cls-18 {
        fill: #394679;
      }

      .cls-19 {
        fill: #0a194d;
      }

      .cls-20 {
        fill: #1c1c2d;
      }

      .cls-21 {
        fill: #848383;
      }

      .cls-22, .cls-44, .cls-51 {
        fill: none;
        stroke-linecap: round;
        stroke-miterlimit: 10;
      }

      .cls-22, .cls-44 {
        stroke: #0a194d;
      }

      .cls-22 {
        stroke-width: 1.114px;
      }

      .cls-23 {
        fill: #9c9694;
      }

      .cls-24 {
        fill: #25253a;
      }

      .cls-25 {
        fill: #f4a22a;
      }

      .cls-26 {
        fill: #716f82;
      }

      .cls-27 {
        fill: #b1aec1;
      }

      .cls-28 {
        fill: #fc9f7b;
      }

      .cls-29 {
        fill: #ddd;
      }

      .cls-30 {
        fill: #2d2d3a;
      }

      .cls-31 {
        fill: #2f558c;
      }

      .cls-32 {
        fill: #eceef0;
      }

      .cls-33 {
        fill: #ea5444;
      }

      .cls-34 {
        fill: #a29fb0;
      }

      .cls-35 {
        fill: #6e89c4;
      }

      .cls-36 {
        fill: #ffc543;
      }

      .cls-37 {
        fill: #313d6e;
      }

      .cls-38 {
        fill: #85818e;
      }

      .cls-39 {
        fill: #c5cbed;
        opacity: 0.55;
      }

      .cls-40 {
        opacity: 0.37;
      }

      .cls-41 {
        fill: #dadae0;
      }

      .cls-42 {
        fill: #fff;
      }

      .cls-43 {
        fill: #884c2e;
      }

      .cls-44 {
        stroke-width: 1.185px;
      }

      .cls-45 {
        fill: #0a0a2c;
      }

      .cls-46 {
        fill: #a36440;
      }

      .cls-47 {
        opacity: 0.33;
      }

      .cls-48 {
        opacity: 0.48;
      }

      .cls-49 {
        fill: #f4a891;
      }

      .cls-50 {
        fill: #ffdcd4;
      }

      .cls-51 {
        stroke: #f3885e;
        stroke-width: 2.054px;
      }
    </style>
  </defs>
  <g id="separator_vector" transform="translate(-0.002 0.019)">
    <g id="Group_270" data-name="Group 270" transform="translate(214.229 72.711)">
      <g id="Group_266" data-name="Group 266" transform="translate(12.083)">
        <rect id="Rectangle_107" data-name="Rectangle 107" class="cls-1" width="2.112" height="29.412" transform="translate(5.127 0.829) rotate(10.038)"/>
        <rect id="Rectangle_108" data-name="Rectangle 108" class="cls-1" width="3.297" height="8.86" transform="translate(4.735 0) rotate(10.038)"/>
      </g>
      <g id="Group_267" data-name="Group 267" transform="translate(8.551 2.484)">
        <path id="Path_439" data-name="Path 439" class="cls-2" d="M434.663,177.421l-2.163-.206,2.472-29.309L436.26,146l.824,2.06Z" transform="translate(-432.5 -146)"/>
      </g>
      <g id="Group_268" data-name="Group 268" transform="translate(0 4.75)">
        <path id="Path_440" data-name="Path 440" class="cls-3" d="M423.626,181.048l-2.06.412-5.666-28.9.773-2.163,1.339,1.751Z" transform="translate(-415.9 -150.4)"/>
      </g>
      <g id="Group_269" data-name="Group 269" transform="translate(0.361 17.988)">
        <path id="Path_441" data-name="Path 441" class="cls-4" d="M428.7,200.206h-9.117L416.6,176.1h15.092Z" transform="translate(-416.6 -176.1)"/>
        <path id="Path_442" data-name="Path 442" class="cls-5" d="M436.856,200.206h-9.117L426.4,176.1h13.444Z" transform="translate(-421.352 -176.1)"/>
      </g>
    </g>
    <g id="Group_271" data-name="Group 271" transform="translate(252.984 -0.019)">
      <path id="Path_443" data-name="Path 443" class="cls-6" d="M501.832,6.5l-6.027,3.709A9.87,9.87,0,0,0,492.2,23.035c.464.927.773,1.494.67,1.442-.206-.258,9.22-17.874,9.22-17.874" transform="translate(-491.138 -3.142)"/>
      <path id="Path_444" data-name="Path 444" class="cls-7" d="M537.3,94.482h3.091a5.221,5.221,0,0,0,5.2-5.2V74.7a5.221,5.221,0,0,0-5.2-5.2H537.3a5.221,5.221,0,0,0-5.2,5.2V89.28A5.289,5.289,0,0,0,537.3,94.482Z" transform="translate(-511 -33.691)"/>
      <path id="Path_445" data-name="Path 445" class="cls-6" d="M494.8,21.316c-.155,1.185,5.357,3.142,5.46,4.43l-.876,2.472c6.748-2.472.773,1.288.773,1.288,2.009,5.975,1.288,9.272,7.057,11.538a21.419,21.419,0,0,0,9.272,1.442c4.378-.309,8.293,1.082,11.487-.464a5.663,5.663,0,0,0,1.854-1.339,22.982,22.982,0,0,0,2.987-3.709c.309-.515.618-1.03.927-1.6,1.751-3.348,5.254-13.135,5-17.2C537.962,6.79,527.042-.782,514.525.042c-.309,0-.618.052-.979.052a21.106,21.106,0,0,0-16.071,9.272c-.206.258-.361.567-.567.876h0C495.879,11.89,495.364,19,495.364,19A8.492,8.492,0,0,0,494.8,21.316Z" transform="translate(-492.91 0.019)"/>
      <path id="Path_446" data-name="Path 446" class="cls-7" d="M495.768,31.256l.154,3.142.258,5.151.412,1.854c.052.824.464,5.1.618,5.872,1.442,7.314,6.233,8.86,13.7,9.787a2.937,2.937,0,0,0,.67.052,12.589,12.589,0,0,0,2.421.052,16.754,16.754,0,0,0,2.318-.309,14.544,14.544,0,0,0,4.224-1.391h0a17.58,17.58,0,0,0,7.778-7.211,16.618,16.618,0,0,0,2.215-7.881V38.365l-.1-1.494-.258-5.1V31.72h0l-.052-.927-.052-.721-.052-.67v-.155a12.441,12.441,0,0,0-.67-3.4,16.285,16.285,0,0,0-.824-2.215l-.155-.309a17.577,17.577,0,0,0-.876-1.7h0a16.788,16.788,0,0,0-4.945-5.305c-.412-.309-.824-.567-1.236-.824a17.629,17.629,0,0,0-9.941-2.421,15.1,15.1,0,0,0-7.623,2.524,18.011,18.011,0,0,0-3.915,3.194,16.743,16.743,0,0,0-3.451,6.13,1.212,1.212,0,0,0-.1.412,11.548,11.548,0,0,0-.464,2.318A27.8,27.8,0,0,0,495.768,31.256Z" transform="translate(-493.367 -6.316)"/>
      <path id="Path_447" data-name="Path 447" class="cls-6" d="M507.222,11.656c-3.657,10.1,5.975,9.272,6.439,13.908a36.94,36.94,0,0,1,.361,5.1l.721,2.369a1.715,1.715,0,0,0,1.648,1.236,1.737,1.737,0,0,0,1.751-1.751v-.052l-.1-3.76,1.854,5a28.383,28.383,0,0,0,5.975,9.581,29.8,29.8,0,0,0,7.469,5.666,27.205,27.205,0,0,0,11.744-22.973,35.3,35.3,0,0,0-.206-3.966,32.876,32.876,0,0,0-.618-3.5C539.518-1.325,515.1,5.423,512.785,6.3,510.312,7.226,507.222,11.656,507.222,11.656Z" transform="translate(-498.536 -2.168)"/>
      <path id="Path_448" data-name="Path 448" class="cls-7" d="M491.8,63.236v.258c.052,1.082.979,1.957,3.3,1.906l-.309-8.5C492.882,59.733,491.955,61.433,491.8,63.236Z" transform="translate(-491.459 -27.581)"/>
      <path id="Path_449" data-name="Path 449" class="cls-6" d="M493.182,47.163h5.2a1.088,1.088,0,0,0,1.082-1.082h0A1.088,1.088,0,0,0,498.384,45h-5.2a1.088,1.088,0,0,0-1.082,1.082h0A1.124,1.124,0,0,0,493.182,47.163Z" transform="translate(-491.604 -21.811)"/>
      <path id="Path_450" data-name="Path 450" class="cls-8" d="M499.173,54.23h0a.792.792,0,0,0,.773-.773V52.273a.792.792,0,0,0-.773-.773h0a.792.792,0,0,0-.773.773v1.133A.8.8,0,0,0,499.173,54.23Z" transform="translate(-494.659 -24.963)"/>
      <path id="Path_451" data-name="Path 451" class="cls-9" d="M544.4,56.376a29.8,29.8,0,0,0,7.469,5.666,27.205,27.205,0,0,0,11.744-22.973,35.3,35.3,0,0,0-.206-3.966,32.846,32.846,0,0,0-.618-3.5,38.167,38.167,0,0,1-5.409,13.341C552.075,53.595,546.306,55.861,544.4,56.376Z" transform="translate(-516.965 -15.313)"/>
      <path id="Path_452" data-name="Path 452" class="cls-6" d="M498.3,64.438l.154,5.975c0,5.1,6.027,7.108,10.508,6.645l7.108-.773L515.35,70.1l-1.957-11.8,3.142-8.808L510.1,52.178h0c.464,7.005-4.533,12.671-11.538,12.362Z" transform="translate(-494.611 -23.993)"/>
      <path id="Path_453" data-name="Path 453" class="cls-7" d="M528.888,49a1.275,1.275,0,0,0-1.288,1.288l.052,4.43.052,3.863h1.854a5.02,5.02,0,0,0,4.533-4.945,4.552,4.552,0,0,0-1.442-3.3,4.686,4.686,0,0,0-3.091-1.288h-.412Z" transform="translate(-508.818 -23.751)"/>
    </g>
    <g id="separator_vector-2" data-name="separator_vector" transform="translate(0.002 12.019)">
      <path id="Path_454" data-name="Path 454" class="cls-10" d="M253.4,211.2v0Z" transform="translate(-122.876 -114.439)"/>
      <path id="Path_455" data-name="Path 455" class="cls-11" d="M253.4,211.2v0Z" transform="translate(-122.876 -114.439)"/>
      <path id="Path_456" data-name="Path 456" class="cls-12" d="M110.42,429.14H406.446a9.211,9.211,0,0,0,9.22-9.22h0a9.211,9.211,0,0,0-9.22-9.22H110.42a9.211,9.211,0,0,0-9.22,9.22h0A9.244,9.244,0,0,0,110.42,429.14Z" transform="translate(-49.073 -211.178)"/>
      <g id="Group_291" data-name="Group 291">
        <path id="Path_457" data-name="Path 457" class="cls-13" d="M73.282,31.617l-1.391-2.472a11.454,11.454,0,0,0-9.169-5.769h0a11.39,11.39,0,0,0-9.89,4.533h0c-.206.258-.361.515-.515.721-3.245,4.79-4.533,12.568-2.163,23.9l4.533,28.948,15.2,2.163,4.842-45.9A11.48,11.48,0,0,0,73.282,31.617Z" transform="translate(-23.731 -23.35)"/>
        <g id="Group_275" data-name="Group 275" transform="translate(56.35 60.807)">
          <g id="Group_273" data-name="Group 273" transform="translate(39.25 27.312)">
            <g id="Group_272" data-name="Group 272" transform="translate(5.111)">
              <path id="Path_458" data-name="Path 458" class="cls-14" d="M196.8,198.429l7.108-2.06a1.009,1.009,0,0,0,.67-1.236h0a1.009,1.009,0,0,0-1.236-.67l-7.108,2.06a1.009,1.009,0,0,0-.67,1.236h0A1.009,1.009,0,0,0,196.8,198.429Z" transform="translate(-195.523 -194.423)"/>
              <path id="Path_459" data-name="Path 459" class="cls-14" d="M201.7,202.017l5.718-1.648a1.009,1.009,0,0,0,.67-1.236h0a1.009,1.009,0,0,0-1.236-.67l-5.718,1.648a1.009,1.009,0,0,0-.67,1.236h0A.989.989,0,0,0,201.7,202.017Z" transform="translate(-197.899 -196.362)"/>
              <path id="Path_460" data-name="Path 460" class="cls-14" d="M199.7,207.026l6.748-1.957a1.009,1.009,0,0,0,.67-1.236h0a1.009,1.009,0,0,0-1.236-.67l-6.748,1.957a1.009,1.009,0,0,0-.67,1.236h0A1.033,1.033,0,0,0,199.7,207.026Z" transform="translate(-196.929 -198.641)"/>
            </g>
            <path id="Path_461" data-name="Path 461" class="cls-14" d="M194.872,197.8c-.052,0-.979.1-1.906.206a11.133,11.133,0,0,0-4.687,1.648l-2.678,1.751a45.957,45.957,0,0,0,2.472,4.687c5.615.309,7.211-2.421,7.211-2.421Z" transform="translate(-185.6 -196.06)"/>
          </g>
          <g id="Group_274" data-name="Group 274">
            <path id="Path_462" data-name="Path 462" class="cls-14" d="M109.4,152.062s3.3,8.808,6.645,16.019c.927,2.009,1.854,3.863,2.73,5.357.258.464.515.876.773,1.288,3.348,5.151,7.778,8.087,14.114,7.263.052,0,18.595-3.142,18.595-3.142l-1.082-6.439-19.162,1.648c-2.06.258-5.151-2.627-6.49-4.584a2.088,2.088,0,0,1-.258-.464c-.618-1.082-1.339-2.421-2.06-3.915-4.327-8.963-9.787-23.694-9.787-23.694Z" transform="translate(-109.4 -141.4)"/>
          </g>
        </g>
        <path id="Path_463" data-name="Path 463" class="cls-15" d="M114.1,130c.361.567,9.22,17.822,9.22,17.822l-6.9,6.336Z" transform="translate(-55.329 -75.065)"/>
        <g id="Group_282" data-name="Group 282" transform="translate(0 68.328)">
          <path id="Path_464" data-name="Path 464" class="cls-16" d="M66.664,229.549,25.147,233.67,9.9,156.354l23.488-.155a21.787,21.787,0,0,1,21.428,17.307Z" transform="translate(-4.802 -156.098)"/>
          <path id="Path_465" data-name="Path 465" class="cls-17" d="M9.17,229.969.053,162.285a5.562,5.562,0,0,1,4.739-6.233h0a5.562,5.562,0,0,1,6.233,4.739l9.117,67.684a5.562,5.562,0,0,1-4.739,6.233h0A5.525,5.525,0,0,1,9.17,229.969Z" transform="translate(-0.002 -156.002)"/>
          <g id="Group_281" data-name="Group 281" transform="translate(9.992 68.455)">
            <g id="Group_276" data-name="Group 276" transform="translate(30.442 14.783)">
              <rect id="Rectangle_109" data-name="Rectangle 109" class="cls-18" width="6.439" height="37.963"/>
              <path id="Path_466" data-name="Path 466" class="cls-19" d="M84.939,321.9v8.551L78.5,327.978v-5.821C80.148,322.106,83.239,321.952,84.939,321.9Z" transform="translate(-78.5 -319.685)"/>
            </g>
            <path id="Path_467" data-name="Path 467" class="cls-18" d="M83.927,318.069H55.185a2.88,2.88,0,0,1-2.885-2.885h0a2.88,2.88,0,0,1,2.885-2.885H83.927a2.88,2.88,0,0,1,2.885,2.885h0A2.88,2.88,0,0,1,83.927,318.069Z" transform="translate(-35.353 -300.247)"/>
            <path id="Path_468" data-name="Path 468" class="cls-16" d="M103.129,303.323H70.111a7.233,7.233,0,0,1-7.211-7.211h0a7.233,7.233,0,0,1,7.211-7.211h33.018a7.233,7.233,0,0,1,7.211,7.211h0A7.233,7.233,0,0,1,103.129,303.323Z" transform="translate(-40.493 -288.9)"/>
            <path id="Path_469" data-name="Path 469" class="cls-17" d="M53.036,303.623H26.611a7.233,7.233,0,0,1-7.211-7.211h0a7.233,7.233,0,0,1,7.211-7.211H53.036a7.233,7.233,0,0,1,7.211,7.211h0A7.3,7.3,0,0,1,53.036,303.623Z" transform="translate(-19.4 -289.046)"/>
            <g id="Group_278" data-name="Group 278" transform="translate(6.181 46.616)">
              <g id="Group_277" data-name="Group 277" transform="translate(0 6.027)">
                <path id="Path_470" data-name="Path 470" class="cls-19" d="M86.155,403.823H82.137a8.727,8.727,0,0,0-8.705-8.705H44.123a8.727,8.727,0,0,0-8.705,8.705H31.4A12.75,12.75,0,0,1,44.123,391.1H73.432A12.75,12.75,0,0,1,86.155,403.823Z" transform="translate(-31.4 -391.1)"/>
              </g>
              <rect id="Rectangle_110" data-name="Rectangle 110" class="cls-19" width="9.375" height="6.13" transform="translate(22.767)"/>
            </g>
            <g id="Group_279" data-name="Group 279" transform="translate(3.657 63.563)">
              <ellipse id="Ellipse_31" data-name="Ellipse 31" class="cls-19" cx="3.348" cy="3.348" rx="3.348" ry="3.348" transform="translate(0.979 2.369)"/>
              <path id="Path_471" data-name="Path 471" class="cls-18" d="M35.669,417.708H26.5v-1.03a4.375,4.375,0,0,1,4.378-4.378h.361a4.375,4.375,0,0,1,4.378,4.378v1.03Z" transform="translate(-26.5 -412.3)"/>
              <ellipse id="Ellipse_32" data-name="Ellipse 32" class="cls-19" cx="3.348" cy="3.348" rx="3.348" ry="3.348" transform="translate(52.128 2.369)"/>
              <path id="Path_472" data-name="Path 472" class="cls-18" d="M134.869,417.708H125.7v-1.03a4.375,4.375,0,0,1,4.378-4.378h.361a4.375,4.375,0,0,1,4.378,4.378v1.03Z" transform="translate(-74.602 -412.3)"/>
            </g>
            <rect id="Rectangle_111" data-name="Rectangle 111" class="cls-19" width="5.305" height="12.053" transform="translate(31.163 53.879)"/>
            <g id="Group_280" data-name="Group 280" transform="translate(29.618 63.563)">
              <ellipse id="Ellipse_33" data-name="Ellipse 33" class="cls-19" cx="3.348" cy="3.348" rx="3.348" ry="3.348" transform="translate(0.979 2.369)"/>
              <path id="Path_473" data-name="Path 473" class="cls-18" d="M86.017,417.708H76.9v-1.03a4.375,4.375,0,0,1,4.378-4.378h.361a4.375,4.375,0,0,1,4.378,4.378Z" transform="translate(-76.9 -412.3)"/>
            </g>
          </g>
        </g>
        <path id="Path_474" data-name="Path 474" class="cls-3" d="M109.058,306.9l-.258-.1A.229.229,0,0,0,109.058,306.9Z" transform="translate(-52.759 -160.796)"/>
        <path id="Path_475" data-name="Path 475" class="cls-3" d="M109.058,306.9l-.258-.1A.229.229,0,0,0,109.058,306.9Z" transform="translate(-52.759 -160.796)"/>
        <path id="Path_476" data-name="Path 476" class="cls-20" d="M61.6,243.5l.309,12.311c.155,6.748,2.885,12.414,11.487,12.671L95.8,271.367v-13.5l-2.885-9.22Z" transform="translate(-29.871 -130.102)"/>
        <g id="Group_286" data-name="Group 286" transform="translate(58.256 121.794)">
          <g id="Group_283" data-name="Group 283" transform="translate(24.828 78.089)">
            <path id="Path_477" data-name="Path 477" class="cls-21" d="M161.3,420.208l23.385.618a2.507,2.507,0,0,0,2.575-2.524h0a2.508,2.508,0,0,0-1.648-2.472l-11.435-4.43H161.506Z" transform="translate(-161.3 -411.4)"/>
            <path id="Path_478" data-name="Path 478" class="cls-19" d="M185.243,428.915l-23.643-.464.052-1.751,25.343.515h0A1.664,1.664,0,0,1,185.243,428.915Z" transform="translate(-161.445 -418.819)"/>
          </g>
          <g id="Group_284" data-name="Group 284" transform="translate(37.087 78.655)">
            <line id="Line_46" data-name="Line 46" class="cls-22" y1="2.936" x2="2.833"/>
            <line id="Line_47" data-name="Line 47" class="cls-22" y1="2.988" x2="2.885" transform="translate(2.009 0.876)"/>
            <line id="Line_48" data-name="Line 48" class="cls-22" y1="3.348" x2="3.245" transform="translate(3.966 1.7)"/>
          </g>
          <g id="Group_285" data-name="Group 285">
            <path id="Path_479" data-name="Path 479" class="cls-20" d="M137.979,339.073c1.391-23.334,2.266-50.479.464-54.858-1.854-2.73-13.908-5.563-25.343-8.705l2.421-15.71c9.22,1.442,31.266,8.705,36.005,16.844,2.009,3.451,2.679,15.762,1.751,39.559-.515,12.465-1.082,22.2-1.082,22.2Z" transform="translate(-113.1 -259.8)"/>
          </g>
        </g>
        <g id="Group_290" data-name="Group 290" transform="translate(31.523 121.434)">
          <g id="Group_287" data-name="Group 287" transform="translate(34.357 78.758)">
            <path id="Path_480" data-name="Path 480" class="cls-23" d="M127.9,420.808l23.385.618a2.507,2.507,0,0,0,2.575-2.524h0a2.508,2.508,0,0,0-1.648-2.472L140.777,412H128.106Z" transform="translate(-127.9 -412)"/>
            <path id="Path_481" data-name="Path 481" class="cls-19" d="M151.843,429.515l-23.643-.464.052-1.751,25.343.515h0A1.759,1.759,0,0,1,151.843,429.515Z" transform="translate(-128.045 -419.419)"/>
          </g>
          <g id="Group_288" data-name="Group 288" transform="translate(46.565 79.273)">
            <line id="Line_49" data-name="Line 49" class="cls-22" y1="2.988" x2="2.833"/>
            <line id="Line_50" data-name="Line 50" class="cls-22" y1="2.936" x2="2.885" transform="translate(2.009 0.927)"/>
            <line id="Line_51" data-name="Line 51" class="cls-22" y1="3.297" x2="3.245" transform="translate(3.966 1.751)"/>
          </g>
          <g id="Group_289" data-name="Group 289">
            <path id="Path_482" data-name="Path 482" class="cls-24" d="M95.557,339.043c1.391-23.334,2.266-50.479.464-54.858-1.7-1.7-15.144-4.945-26.321-8.19a11.208,11.208,0,0,1-7.932-9.169l-.567-7.16,12.259-.567c9.22,1.442,30.906,9.375,35.645,17.513,2.009,3.451,2.679,15.762,1.751,39.559-.515,12.465-1.082,22.2-1.082,22.2Z" transform="translate(-61.2 -259.1)"/>
          </g>
        </g>
        <path id="Path_483" data-name="Path 483" class="cls-15" d="M90.774,189.592l-23.076.979-9.684.412h-.052l-2.833-47.44c-.309-6.439.361-11.281,1.545-14.835,3.5-10.559,11.435-10.508,12.208-10.508l8.345.1c7.108,0,12.568,12,13.289,24.364l.1,32.348.052,11.332Z" transform="translate(-26.697 -69.343)"/>
        <path id="Path_484" data-name="Path 484" class="cls-25" d="M90.774,199.484l-23.076.979-9.684.412h-.052l-2.833-47.44c-.309-6.439.361-11.281,1.545-14.835l4.533,6.9,8.087,26.63,13.392,6.542,8.035,6.336.052,11.332Z" transform="translate(-26.697 -79.235)"/>
      </g>
      <line id="Line_52" data-name="Line 52" class="cls-18" y2="2.678" transform="translate(316.268 200.398)"/>
      <rect id="Rectangle_112" data-name="Rectangle 112" class="cls-19" width="35.078" height="6.954" transform="translate(243.639 135.29)"/>
      <rect id="Rectangle_113" data-name="Rectangle 113" class="cls-26" width="7.881" height="97.353" transform="translate(250.463 208.906) rotate(180)"/>
      <rect id="Rectangle_114" data-name="Rectangle 114" class="cls-27" width="7.881" height="97.353" transform="translate(279.812 208.906) rotate(180)"/>
      <rect id="Rectangle_115" data-name="Rectangle 115" class="cls-26" width="33.275" height="6.954" transform="translate(49.5 135.908)"/>
      <rect id="Rectangle_116" data-name="Rectangle 116" class="cls-26" width="7.881" height="97.353" transform="translate(56.69 208.949) rotate(180)"/>
      <rect id="Rectangle_117" data-name="Rectangle 117" class="cls-27" width="7.881" height="97.353" transform="translate(85.393 208.906) rotate(180)"/>
      <path id="Path_485" data-name="Path 485" class="cls-13" d="M75.9,232.757H185.873v-5.666A3.1,3.1,0,0,0,182.782,224H79.042a3.1,3.1,0,0,0-3.091,3.091v5.666Z" transform="translate(-36.805 -120.646)"/>
      <g id="Group_292" data-name="Group 292" transform="translate(71.134 103.302)">
        <path id="Path_486" data-name="Path 486" class="cls-28" d="M356.037,226.991v5.666H138.1v-5.666a3.111,3.111,0,0,1,3.142-3.091h211.7A3.1,3.1,0,0,1,356.037,226.991Z" transform="translate(-138.1 -223.9)"/>
        <path id="Path_487" data-name="Path 487" class="cls-13" d="M458.008,223.9v8.808H398.515c-1.03-2.266-2.73-6.027-3.915-8.808Z" transform="translate(-262.478 -223.9)"/>
      </g>
      <g id="Group_304" data-name="Group 304" transform="translate(158.038 61.528)">
        <path id="Path_488" data-name="Path 488" class="cls-29" d="M362.283,186.047H317.521a3.586,3.586,0,0,1-.567-1.185L306.91,148.651a2.745,2.745,0,0,1,2.627-3.451h39.4a2.767,2.767,0,0,1,2.627,1.957Z" transform="translate(-306.815 -143.964)"/>
        <path id="Path_489" data-name="Path 489" class="cls-30" d="M324.064,185.192H366.1l-11.178-40.435a2.661,2.661,0,0,0-2.627-1.957H312.937a2.7,2.7,0,0,0-2.627,3.4l9.993,36.108A3.911,3.911,0,0,0,324.064,185.192Z" transform="translate(-308.464 -142.8)"/>
        <path id="Path_490" data-name="Path 490" class="cls-31" d="M314.607,149.494l8.19,29.463,1.7,6.181h41.671l-1.7-6.181-8.551-30.8A2.534,2.534,0,0,0,353.5,146.3H317.028A2.537,2.537,0,0,0,314.607,149.494Z" transform="translate(-310.546 -144.497)"/>
        <g id="Group_299" data-name="Group 299" transform="translate(7.925 4.945)">
          <g id="Group_293" data-name="Group 293">
            <path id="Path_491" data-name="Path 491" class="cls-32" d="M362.057,153.276h12.826l-.258-.876H361.8Z" transform="translate(-341.402 -152.4)"/>
            <path id="Path_492" data-name="Path 492" class="cls-33" d="M339.509,153.276h6.027l-.258-.876H339.2Z" transform="translate(-330.443 -152.4)"/>
            <path id="Path_493" data-name="Path 493" class="cls-34" d="M322.458,153.276h6.078l-.258-.876H322.2Z" transform="translate(-322.2 -152.4)"/>
            <path id="Path_494" data-name="Path 494" class="cls-35" d="M335.658,153.276H337.1l-.309-.876H335.4Z" transform="translate(-328.601 -152.4)"/>
            <path id="Path_495" data-name="Path 495" class="cls-34" d="M352.658,153.276h4.275l-.309-.876H352.4Z" transform="translate(-336.844 -152.4)"/>
          </g>
          <g id="Group_294" data-name="Group 294" transform="translate(23.231 15.401)">
            <path id="Path_496" data-name="Path 496" class="cls-29" d="M373.687,183.176h-6.078l-.309-.876h6.078Z" transform="translate(-367.3 -182.3)"/>
            <path id="Path_497" data-name="Path 497" class="cls-36" d="M390.736,183.176h-6.078l-.258-.876h6.078Z" transform="translate(-375.592 -182.3)"/>
            <path id="Path_498" data-name="Path 498" class="cls-35" d="M381.9,183.176h-1.442l-.258-.876h1.442Z" transform="translate(-373.555 -182.3)"/>
          </g>
          <g id="Group_295" data-name="Group 295" transform="translate(1.185 3.812)">
            <path id="Path_499" data-name="Path 499" class="cls-33" d="M380.009,160.727h4.79l-.258-.927H379.7Z" transform="translate(-351.267 -159.8)"/>
            <path id="Path_500" data-name="Path 500" class="cls-35" d="M357.409,160.727h2.06l-.309-.927H357.1Z" transform="translate(-340.308 -159.8)"/>
            <path id="Path_501" data-name="Path 501" class="cls-33" d="M324.809,160.727h10.1l-.309-.927H324.5Z" transform="translate(-324.5 -159.8)"/>
            <path id="Path_502" data-name="Path 502" class="cls-35" d="M345.809,160.727h5.409l-.258-.927H345.5Z" transform="translate(-334.683 -159.8)"/>
            <path id="Path_503" data-name="Path 503" class="cls-35" d="M362.809,160.727h8.242l-.258-.927H362.5Z" transform="translate(-342.926 -159.8)"/>
          </g>
          <g id="Group_296" data-name="Group 296" transform="translate(36.932 26.94)">
            <path id="Path_504" data-name="Path 504" class="cls-37" d="M394.209,205.576H399l-.258-.876H393.9Z" transform="translate(-393.9 -204.7)"/>
          </g>
          <g id="Group_297" data-name="Group 297" transform="translate(3.76 7.675)">
            <path id="Path_505" data-name="Path 505" class="cls-29" d="M382.358,168.227H387.2l-.309-.927H382.1Z" transform="translate(-355.006 -167.3)"/>
            <path id="Path_506" data-name="Path 506" class="cls-29" d="M367.109,168.227h4.79l-.258-.927H366.8Z" transform="translate(-347.587 -167.3)"/>
            <path id="Path_507" data-name="Path 507" class="cls-35" d="M329.809,168.227h8.242l-.309-.927H329.5Z" transform="translate(-329.5 -167.3)"/>
          </g>
          <g id="Group_298" data-name="Group 298" transform="translate(28.588 11.538)">
            <path id="Path_508" data-name="Path 508" class="cls-35" d="M386.251,175.676h-8.242l-.309-.876h8.293Z" transform="translate(-377.7 -174.8)"/>
          </g>
        </g>
        <path id="Path_509" data-name="Path 509" class="cls-30" d="M330.6,209.7l1.7,6.181h41.671l-1.7-6.181Z" transform="translate(-318.349 -175.24)"/>
        <g id="Group_300" data-name="Group 300" transform="translate(32.546 38.169)">
          <path id="Path_510" data-name="Path 510" class="cls-38" d="M372.163,221.227h51.2a2.176,2.176,0,0,0,2.163-2.163h0a2.176,2.176,0,0,0-2.163-2.163h-51.2A2.176,2.176,0,0,0,370,219.063h0A2.176,2.176,0,0,0,372.163,221.227Z" transform="translate(-370 -216.9)"/>
        </g>
        <path id="Path_511" data-name="Path 511" class="cls-39" d="M324.5,142.8l26.373,38.014h16.071L340.622,142.8Z" transform="translate(-315.391 -142.8)"/>
        <g id="Group_303" data-name="Group 303" transform="translate(13.127 38.014)">
          <g id="Group_301" data-name="Group 301">
            <path id="Path_512" data-name="Path 512" class="cls-29" d="M334.515,221.03h30.339a2.2,2.2,0,0,0,2.215-2.215h0a2.2,2.2,0,0,0-2.215-2.215H334.515a2.2,2.2,0,0,0-2.215,2.215h0A2.2,2.2,0,0,0,334.515,221.03Z" transform="translate(-332.3 -216.6)"/>
          </g>
          <g id="Group_302" data-name="Group 302" transform="translate(12.806 1.39)">
            <rect id="Rectangle_118" data-name="Rectangle 118" class="cls-8" width="4.224" height="1.288" transform="translate(4.224 1.288) rotate(180)"/>
            <rect id="Rectangle_119" data-name="Rectangle 119" class="cls-8" width="3.091" height="1.288" transform="translate(8.548 1.288) rotate(180)"/>
          </g>
        </g>
      </g>
      <g id="Group_308" data-name="Group 308" transform="translate(127.382 91.198)">
        <g id="Group_306" data-name="Group 306" transform="translate(0 0.052)">
          <path id="Path_513" data-name="Path 513" class="cls-17" d="M247.3,201.427v11.59h9.684v-11.59a.923.923,0,0,0-.927-.927h-7.829A.923.923,0,0,0,247.3,201.427Z" transform="translate(-247.3 -200.5)"/>
          <g id="Group_305" data-name="Group 305" transform="translate(8.808 2.369)">
            <path id="Path_514" data-name="Path 514" class="cls-17" d="M265.173,213.238c.1-.052,3.091-1.8,3.348-4.842a2.754,2.754,0,0,0-.721-2.266,4.43,4.43,0,0,0-3.039-1.03l.052,1.391a2.977,2.977,0,0,1,1.957.618,1.427,1.427,0,0,1,.309,1.185c-.206,2.318-2.627,3.76-2.678,3.76Z" transform="translate(-264.4 -205.099)"/>
          </g>
        </g>
        <path id="Path_515" data-name="Path 515" class="cls-17" d="M256.1,212.917h5.151v-11.59a.923.923,0,0,0-.927-.927h-.309a27.863,27.863,0,0,1-1.494,8.551C257.388,211.887,256.409,212.711,256.1,212.917Z" transform="translate(-251.567 -200.4)"/>
        <g id="Group_307" data-name="Group 307" transform="translate(4.533)">
          <path id="Path_516" data-name="Path 516" class="cls-40" d="M263.775,203.8a4.02,4.02,0,0,0-2.524-1.03v-1.442a.923.923,0,0,0-.927-.927h-.309a27.863,27.863,0,0,1-1.494,8.551c-1.133,2.885-2.112,3.76-2.421,3.966h5.151v-2.06c.567-.361,2.988-2.06,3.245-4.79A2.9,2.9,0,0,0,263.775,203.8Zm-.721,2.163a4.62,4.62,0,0,1-1.854,3.142v-4.893a2.674,2.674,0,0,1,1.494.567A1.335,1.335,0,0,1,263.054,205.963Z" transform="translate(-256.1 -200.4)"/>
        </g>
      </g>
      <g id="Group_318" data-name="Group 318" transform="translate(29.252 55.141)">
        <g id="Group_313" data-name="Group 313" transform="translate(47.806 15.144)">
          <g id="Group_312" data-name="Group 312">
            <path id="Path_517" data-name="Path 517" class="cls-29" d="M232.509,193.642H197.894a3.093,3.093,0,0,1-2.782-4.43l12.053-25.755a6.293,6.293,0,0,1,5.769-3.657h31.884a2.263,2.263,0,0,1,2.06,3.194Z" transform="translate(-171.521 -159.8)"/>
            <g id="Group_311" data-name="Group 311" transform="translate(0 30.339)">
              <g id="Group_309" data-name="Group 309">
                <path id="Path_518" data-name="Path 518" class="cls-41" d="M176.076,222.306H151.4a1.825,1.825,0,0,1-1.8-1.8h0a1.825,1.825,0,0,1,1.8-1.8h24.673a1.825,1.825,0,0,1,1.8,1.8h0A1.792,1.792,0,0,1,176.076,222.306Z" transform="translate(-149.6 -218.7)"/>
              </g>
              <g id="Group_310" data-name="Group 310" transform="translate(10.456 1.185)">
                <rect id="Rectangle_120" data-name="Rectangle 120" class="cls-42" width="3.503" height="1.082" transform="translate(3.657)"/>
                <rect id="Rectangle_121" data-name="Rectangle 121" class="cls-42" width="2.575" height="1.082"/>
              </g>
            </g>
            <path id="Path_519" data-name="Path 519" class="cls-34" d="M232.716,193.642H198a1.709,1.709,0,0,1-1.545-2.421l13.032-27.764a6.293,6.293,0,0,1,5.769-3.657h31.884a2.263,2.263,0,0,1,2.06,3.194l-13.444,28.742A3.353,3.353,0,0,1,232.716,193.642Z" transform="translate(-172.244 -159.8)"/>
          </g>
          <ellipse id="Ellipse_34" data-name="Ellipse 34" class="cls-42" cx="3.812" cy="2.112" rx="3.812" ry="2.112" transform="translate(47.518 20.747) rotate(-66.858)"/>
        </g>
        <g id="Group_317" data-name="Group 317" transform="translate(2.632 5.872)">
          <g id="Group_315" data-name="Group 315" transform="translate(36.108 33.167)">
            <g id="Group_314" data-name="Group 314" transform="translate(5.404)">
              <path id="Path_520" data-name="Path 520" class="cls-14" d="M143.629,209.286l7.314-1.133a1.032,1.032,0,0,0,.824-1.133h0a1.032,1.032,0,0,0-1.133-.824l-7.314,1.133a1.032,1.032,0,0,0-.824,1.133h0A1.065,1.065,0,0,0,143.629,209.286Z" transform="translate(-142.49 -206.19)"/>
              <path id="Path_521" data-name="Path 521" class="cls-14" d="M148.129,213.28l5.872-.927a1.032,1.032,0,0,0,.824-1.133h0a1.032,1.032,0,0,0-1.133-.824l-5.872.927a1.032,1.032,0,0,0-.824,1.133h0A.981.981,0,0,0,148.129,213.28Z" transform="translate(-144.673 -208.227)"/>
              <path id="Path_522" data-name="Path 522" class="cls-14" d="M145.529,218.134l6.954-1.082a1.032,1.032,0,0,0,.824-1.133h0a1.032,1.032,0,0,0-1.133-.824l-6.954,1.082a1.032,1.032,0,0,0-.824,1.133h0A1,1,0,0,0,145.529,218.134Z" transform="translate(-143.412 -210.506)"/>
            </g>
            <path id="Path_523" data-name="Path 523" class="cls-14" d="M141.684,208.447c-.1,0-.979,0-1.957-.051a9.948,9.948,0,0,0-4.842,1.082L132,210.868s1.648,4.893,1.854,4.945c5.563,1.03,7.469-1.494,7.469-1.494Z" transform="translate(-132 -207.257)"/>
          </g>
          <g id="Group_316" data-name="Group 316">
            <path id="Path_524" data-name="Path 524" class="cls-14" d="M61.9,151.793s2.163,9.169,4.533,16.689c.67,2.112,1.339,4.069,2.009,5.666.206.464.412.927.618,1.339,2.627,5.563,6.7,8.963,13.032,9.014.051,0,18.853-.773,18.853-.773l-.258-6.49-19.213-.773c-2.112,0-4.79-3.245-5.821-5.357a1.83,1.83,0,0,1-.206-.464c-.464-1.133-.979-2.575-1.545-4.121C70.76,157.1,67.257,141.8,67.257,141.8Z" transform="translate(-61.9 -141.8)"/>
          </g>
        </g>
        <path id="Path_525" data-name="Path 525" class="cls-15" d="M66.376,130.4,70.6,149.2l-12.053,3.657s-.67-2.369-1.185-5.1-1.082-9.787.258-13.032C58.8,131.533,62.874,131.018,66.376,130.4Z" transform="translate(-56.791 -130.4)"/>
      </g>
      <g id="Group_339" data-name="Group 339" transform="translate(204.394 41.13)">
        <g id="Group_338" data-name="Group 338">
          <g id="Group_319" data-name="Group 319" transform="translate(30.796 163.904)">
            <path id="Path_526" data-name="Path 526" class="cls-43" d="M484.671,431.393l-25.394-.515A2.748,2.748,0,0,1,456.6,428.1h0a2.7,2.7,0,0,1,1.906-2.576l12.671-4.121,13.753.618Z" transform="translate(-456.597 -421.4)"/>
            <path id="Path_527" data-name="Path 527" class="cls-19" d="M459.1,439.306l25.7.721.052-1.854L457.3,437.4h0A1.846,1.846,0,0,0,459.1,439.306Z" transform="translate(-456.936 -429.158)"/>
          </g>
          <g id="Group_320" data-name="Group 320" transform="translate(37.958 164.316)">
            <line id="Line_53" data-name="Line 53" class="cls-44" x1="2.885" y1="3.297" transform="translate(4.687)"/>
            <line id="Line_54" data-name="Line 54" class="cls-44" x1="2.885" y1="3.245" transform="translate(2.472 0.876)"/>
            <line id="Line_55" data-name="Line 55" class="cls-44" x1="3.245" y1="3.709" transform="translate(0 1.597)"/>
          </g>
          <g id="Group_321" data-name="Group 321" transform="translate(43.561 87.206)">
            <path id="Path_528" data-name="Path 528" class="cls-45" d="M497.873,350.382c-1.494-24.776-1.082-47.7.876-52.334,1.957-2.885,17.41-9.117,32.863-9.787L524.4,272.5c-20.243,1.03-34.717,8.6-39.765,17.307-2.112,3.657-3.966,11.075-2.988,36.314.515,13.238,1.185,23.591,1.185,23.591Z" transform="translate(-481.378 -272.5)"/>
          </g>
          <g id="Group_322" data-name="Group 322" transform="translate(8.391 164.419)">
            <path id="Path_529" data-name="Path 529" class="cls-46" d="M441.276,432.032l-25.394.206a2.792,2.792,0,0,1-2.782-2.73h0a2.8,2.8,0,0,1,1.8-2.627L427.42,422.4l13.753.258Z" transform="translate(-413.1 -422.4)"/>
            <path id="Path_530" data-name="Path 530" class="cls-19" d="M415.754,441.154h25.7V439.3H413.9A1.847,1.847,0,0,0,415.754,441.154Z" transform="translate(-413.488 -430.595)"/>
          </g>
          <g id="Group_323" data-name="Group 323" transform="translate(15.397 164.985)">
            <line id="Line_56" data-name="Line 56" class="cls-44" x1="2.988" y1="3.194" transform="translate(4.687)"/>
            <line id="Line_57" data-name="Line 57" class="cls-44" x1="2.988" y1="3.194" transform="translate(2.472 0.927)"/>
            <line id="Line_58" data-name="Line 58" class="cls-44" x1="3.4" y1="3.657" transform="translate(0 1.7)"/>
          </g>
          <g id="Group_324" data-name="Group 324" transform="translate(21 87.206)">
            <path id="Path_531" data-name="Path 531" class="cls-24" d="M454.073,350.382c-1.494-24.776-1.082-47.7.876-52.334,1.957-2.885,17.41-9.117,32.863-9.787L480.6,272.5c-20.243,1.03-34.717,8.6-39.765,17.307-2.112,3.657-3.966,11.075-2.988,36.314.515,13.238,1.185,23.591,1.185,23.591Z" transform="translate(-437.578 -272.5)"/>
          </g>
          <path id="Path_532" data-name="Path 532" class="cls-24" d="M511.8,275.239a11.446,11.446,0,0,0,2.627,7.314,11.571,11.571,0,0,0,8.86,4.172h19.265c.567,0,1.133-.052,1.7-.1a12.045,12.045,0,0,0,3.966-1.339c.206-.1.412-.258.618-.361a11.5,11.5,0,0,0,5.2-9.632l-.361-6.13-41.568-.361Z" transform="translate(-452.569 -183.5)"/>
          <g id="Group_327" data-name="Group 327" transform="translate(33.669 54.742)">
            <g id="Group_326" data-name="Group 326">
              <g id="Group_325" data-name="Group 325">
                <path id="Path_533" data-name="Path 533" class="cls-14" d="M475.662,213.763l-9.941-1.6a1.381,1.381,0,0,1-1.133-1.545h0a1.381,1.381,0,0,1,1.545-1.133l9.941,1.6a1.381,1.381,0,0,1,1.133,1.545h0A1.332,1.332,0,0,1,475.662,213.763Z" transform="translate(-463.338 -209.475)"/>
                <path id="Path_534" data-name="Path 534" class="cls-14" d="M471.3,219.254l-7.984-1.288a1.381,1.381,0,0,1-1.133-1.545h0a1.381,1.381,0,0,1,1.545-1.133l7.984,1.288a1.381,1.381,0,0,1,1.133,1.545h0A1.308,1.308,0,0,1,471.3,219.254Z" transform="translate(-462.174 -212.287)"/>
                <path id="Path_535" data-name="Path 535" class="cls-14" d="M473.547,225.86l-9.426-1.494a1.381,1.381,0,0,1-1.133-1.545h0a1.381,1.381,0,0,1,1.545-1.133l9.426,1.494a1.381,1.381,0,0,1,1.133,1.545h0A1.343,1.343,0,0,1,473.547,225.86Z" transform="translate(-462.562 -215.39)"/>
              </g>
              <path id="Path_536" data-name="Path 536" class="cls-14" d="M477.7,212.748c.1,0,1.339,0,2.627-.052a14.048,14.048,0,0,1,6.593,1.494l3.915,1.906s-2.266,6.645-2.576,6.7c-7.572,1.391-10.147-2.06-10.147-2.06Z" transform="translate(-469.703 -211.035)"/>
            </g>
            <rect id="Rectangle_122" data-name="Rectangle 122" class="cls-42" width="3.348" height="10.92" transform="translate(17.238 12.603) rotate(180)"/>
          </g>
          <g id="Group_328" data-name="Group 328" transform="translate(50.629 20.604)">
            <path id="Path_537" data-name="Path 537" class="cls-16" d="M517.352,191.155a20.457,20.457,0,0,0,18.492-11.8L536,179l10.353-31.627L533.578,143.2l-10.1,30.8a6.841,6.841,0,0,1-6.233,3.709l-21.995-.206-.154,13.444,21.995.206Z" transform="translate(-495.1 -143.2)"/>
          </g>
          <g id="Group_330" data-name="Group 330" transform="translate(0 49.485)">
            <g id="Group_329" data-name="Group 329" transform="translate(0 0.218)">
              <path id="Path_538" data-name="Path 538" class="cls-14" d="M398.092,204.539a8.379,8.379,0,0,1,3.554-3.4h.052a14.652,14.652,0,0,1,6.593-1.442l4.378.1s.876,10.353.824,10.044c-.1-.618-4.224-1.236-15.3-1.236a1.385,1.385,0,0,1-1.236-2.009Z" transform="translate(-396.809 -199.693)"/>
            </g>
            <rect id="Rectangle_123" data-name="Rectangle 123" class="cls-42" width="4.172" height="11.178" transform="translate(18.168 11.178) rotate(180)"/>
          </g>
          <path id="Path_539" data-name="Path 539" class="cls-17" d="M552.131,202.651s-4.327.464-10.1.721c-1.03.052-2.163.1-3.3.1-6.7.155-14.577-.052-20.192-1.494a53.492,53.492,0,0,1-7.881-2.627c-.773-.361-1.442-.67-2.06-.979a13.014,13.014,0,0,1-3.039-2.06h0l-.309-35.851L505,132.289A20.082,20.082,0,0,1,525.089,112.2h6.8a19.685,19.685,0,0,1,3.5.309,18.363,18.363,0,0,1,3.4.927h0a20.078,20.078,0,0,1,13.186,18.9Z" transform="translate(-449.271 -107.564)"/>
          <path id="Path_540" data-name="Path 540" class="cls-47" d="M567.842,202.554s-4.327.464-10.1.721c-1.03.051-2.163.1-3.3.1-3.606.1-7.52.051-11.229-.206l-.154-75.822a22.569,22.569,0,0,0-5.666-15.041,19.112,19.112,0,0,1,3.451-.309h6.8a19.684,19.684,0,0,1,3.5.309,18.363,18.363,0,0,1,3.4.927h0a20.078,20.078,0,0,1,13.186,18.9Z" transform="translate(-464.982 -107.467)"/>
          <path id="Path_541" data-name="Path 541" class="cls-48" d="M519.39,150.994c-.773,3.4-5.512,24.622-7.675,34.408l-.155-16.638a29.865,29.865,0,0,1-2.73,6.439l-1.03-8.757C507.9,166.447,520.42,146.564,519.39,150.994Z" transform="translate(-450.629 -126.063)"/>
          <g id="Group_336" data-name="Group 336" transform="translate(51.968 114.403)">
            <g id="Group_331" data-name="Group 331" transform="translate(28.279 2.73)">
              <rect id="Rectangle_124" data-name="Rectangle 124" class="cls-18" width="6.799" height="37.757"/>
              <path id="Path_542" data-name="Path 542" class="cls-19" d="M552.6,334.9v8.551l6.8-2.472v-5.769C557.7,335.055,554.454,334.951,552.6,334.9Z" transform="translate(-552.6 -332.685)"/>
            </g>
            <path id="Path_543" data-name="Path 543" class="cls-18" d="M525.585,331.069h30.7a2.88,2.88,0,0,0,2.885-2.885h0a2.88,2.88,0,0,0-2.885-2.885h-30.7a2.88,2.88,0,0,0-2.885,2.885h0A2.948,2.948,0,0,0,525.585,331.069Z" transform="translate(-509.823 -325.3)"/>
            <g id="Group_333" data-name="Group 333" transform="translate(3.194 34.355)">
              <g id="Group_332" data-name="Group 332" transform="translate(0 7.368)">
                <path id="Path_544" data-name="Path 544" class="cls-19" d="M503.9,418.971h4.224a8.938,8.938,0,0,1,9.22-8.654H548.3c5.048,0,9.22,3.915,9.22,8.654h4.224c0-7.005-6.027-12.671-13.444-12.671H517.344C509.927,406.3,503.9,411.966,503.9,418.971Z" transform="translate(-503.9 -406.3)"/>
              </g>
              <rect id="Rectangle_125" data-name="Rectangle 125" class="cls-19" width="9.89" height="8.293" transform="translate(33.479 8.293) rotate(180)"/>
            </g>
            <g id="Group_334" data-name="Group 334" transform="translate(0 52.643)">
              <ellipse id="Ellipse_35" data-name="Ellipse 35" class="cls-19" cx="3.503" cy="3.348" rx="3.503" ry="3.348" transform="translate(55.579 2.266)"/>
              <path id="Path_545" data-name="Path 545" class="cls-18" d="M602.5,432.857h9.632v-.876a4.485,4.485,0,0,0-4.481-4.481h-.618a4.485,4.485,0,0,0-4.481,4.481v.876Z" transform="translate(-548.518 -427.5)"/>
              <ellipse id="Ellipse_36" data-name="Ellipse 36" class="cls-19" cx="3.503" cy="3.348" rx="3.503" ry="3.348" transform="translate(1.597 2.266)"/>
              <path id="Path_546" data-name="Path 546" class="cls-18" d="M497.7,432.857h9.632v-.876a4.485,4.485,0,0,0-4.481-4.481h-.618a4.485,4.485,0,0,0-4.481,4.481v.876Z" transform="translate(-497.7 -427.5)"/>
            </g>
            <rect id="Rectangle_126" data-name="Rectangle 126" class="cls-19" width="5.615" height="12.002" transform="translate(34.6 54.983) rotate(180)"/>
            <g id="Group_335" data-name="Group 335" transform="translate(26.579 52.643)">
              <ellipse id="Ellipse_37" data-name="Ellipse 37" class="cls-19" cx="3.503" cy="3.348" rx="3.503" ry="3.348" transform="translate(1.597 2.266)"/>
              <path id="Path_547" data-name="Path 547" class="cls-18" d="M549.3,432.857h9.632v-.876a4.484,4.484,0,0,0-4.481-4.481h-.618a4.485,4.485,0,0,0-4.481,4.481v.876Z" transform="translate(-549.3 -427.5)"/>
            </g>
          </g>
          <path id="Path_548" data-name="Path 548" class="cls-16" d="M628.6,179.375,619.539,245a8.272,8.272,0,0,1-7.932,7.108l-20.707.361L603.52,170h16.9A8.223,8.223,0,0,1,628.6,179.375Z" transform="translate(-490.925 -135.592)"/>
          <g id="Group_337" data-name="Group 337" transform="translate(16.53 12.774)">
            <path id="Path_549" data-name="Path 549" class="cls-17" d="M451.1,177.655a20.456,20.456,0,0,0,18.492-11.8l14.938-32.245L472.323,128l-14.938,32.245a6.842,6.842,0,0,1-6.336,4.018l-21.995-.206L428.9,177.5l21.995.206A.31.31,0,0,1,451.1,177.655Z" transform="translate(-428.9 -128)"/>
          </g>
          <path id="Path_550" data-name="Path 550" class="cls-17" d="M483.86,316.72h53.055a7.178,7.178,0,0,0,7.16-7.16h0a7.178,7.178,0,0,0-7.16-7.16H483.86a7.177,7.177,0,0,0-7.16,7.16h0A7.211,7.211,0,0,0,483.86,316.72Z" transform="translate(-435.549 -199.793)"/>
          <rect id="Rectangle_127" data-name="Rectangle 127" class="cls-42" width="20.758" height="5.821" transform="translate(68.709)"/>
          <path id="Path_551" data-name="Path 551" class="cls-17" d="M598.292,243.456l9.632-67.323a5.588,5.588,0,0,0-5-6.181h0a5.742,5.742,0,0,0-6.542,4.739l-9.632,67.323a5.588,5.588,0,0,0,5,6.181h0C594.892,248.555,596.54,250.822,598.292,243.456Z" transform="translate(-488.89 -135.543)"/>
          <path id="Path_552" data-name="Path 552" class="cls-48" d="M510.809,235.237c-.773-.361-1.442-.67-2.06-.979a13.014,13.014,0,0,1-3.039-2.06h0l-.309-35.851a31.9,31.9,0,0,0,5.048-10.147Z" transform="translate(-449.465 -143.447)"/>
        </g>
      </g>
    </g>
    <path id="Path_553" data-name="Path 553" class="cls-49" d="M85.372,105.97H83.621A4.133,4.133,0,0,1,79.5,101.85V88.921A4.133,4.133,0,0,1,83.621,84.8h1.751a4.133,4.133,0,0,1,4.121,4.121V101.9A4.122,4.122,0,0,1,85.372,105.97Z" transform="translate(-38.549 -41.129)"/>
    <g id="Group_344" data-name="Group 344" transform="translate(32.71 12.868)">
      <path id="Path_554" data-name="Path 554" class="cls-42" d="M78.544,26.6,77.1,25s-7.366,1.185-10.3,7.572l1.082,1.6Z" transform="translate(-65.1 -25)"/>
      <g id="Group_343" data-name="Group 343" transform="translate(0 0.562)">
        <path id="Path_555" data-name="Path 555" class="cls-4" d="M100.329,45.309c0,.258-.052.515-.052.824a17.623,17.623,0,0,1-.824,3.709c-1.7,5.048-19.059-10.1-23.952-8.19-2.421.979-3.915,21.428-4.327,21.119A23.558,23.558,0,0,1,63.6,42.682c.67-9.632,9.684-16.792,19.213-16.586a4.431,4.431,0,0,1,.824.052,17.9,17.9,0,0,1,14.114,8.6h0a15.8,15.8,0,0,1,1.957,4.584A16.184,16.184,0,0,1,100.329,45.309Z" transform="translate(-63.5 -26.092)"/>
        <g id="Group_341" data-name="Group 341" transform="translate(3.81 5.702)">
          <path id="Path_556" data-name="Path 556" class="cls-50" d="M82.2,67.2a2.807,2.807,0,0,1-.258,1.133,2.959,2.959,0,0,1-.773,1.133,3.183,3.183,0,0,1-2.318.876l-1.906-.1L75.5,70.19l.206-4.327h0l.051-.824.052-.618-.052-.567V63.7h0l3.348.155a3.26,3.26,0,0,1,2.163.979,3.718,3.718,0,0,1,.721,1.236A1.791,1.791,0,0,1,82.2,67.2Z" transform="translate(-73.129 -50.03)"/>
          <path id="Path_557" data-name="Path 557" class="cls-14" d="M75.2,59.743v.67a14.432,14.432,0,0,0,1.545,5.924c.051.1.1.155.155.258a15.086,15.086,0,0,0,6.8,6.49h0A16.444,16.444,0,0,0,87.3,74.269a12.941,12.941,0,0,0,1.391.206c.206,0,.361.051.567.051a9.117,9.117,0,0,0,2.06-.051c.206,0,.361-.052.567-.052A14.723,14.723,0,0,0,104.56,62.679c.1-.67.206-1.339.258-2.06l.052-1.03.361-7.005a15.256,15.256,0,0,0-.1-3.091,11.138,11.138,0,0,0-.515-2.266,14.059,14.059,0,0,0-2.936-5.2,15.1,15.1,0,0,0-18.749-2.782c-.361.206-.721.464-1.03.67a14.426,14.426,0,0,0-4.172,4.481h0c-.258.464-.515.979-.773,1.442-.052.1-.1.155-.1.258-.258.618-.515,1.236-.721,1.854a11.017,11.017,0,0,0-.567,2.885v.155l.051.567-.052.618L75.509,53h0v.567L75.3,57.373l-.051,1.236v.567A2.309,2.309,0,0,0,75.2,59.743Z" transform="translate(-72.983 -37.162)"/>
          <path id="Path_558" data-name="Path 558" class="cls-50" d="M70.9,71.43a2.948,2.948,0,0,0,2.215,2.988.877.877,0,0,0,.361.052h.206l.927.052.1-1.906V72.2l.155-3.451-.927-.052H73.68a.877.877,0,0,0-.361.052h0a2.652,2.652,0,0,0-1.494.67A3.312,3.312,0,0,0,70.9,71.43Z" transform="translate(-70.896 -52.455)"/>
        </g>
        <path id="Path_559" data-name="Path 559" class="cls-14" d="M73.156,68.686h0v1.288h.1A14.54,14.54,0,0,0,74.7,75.9c.052.1.1.155.155.258A15.012,15.012,0,0,0,81.707,82.8h0c2.524,1.545,2.679,1.288,2.679,1.288s1.236-.155,1.082-.258a16.5,16.5,0,0,1-5.357-7.623c-.927-2.421-1.133-6.336-1.082-9.89v-.258c0-1.6.1-3.142.155-4.378v-.052c.1-1.7.206-2.782.206-2.782-1.133-2.524-3.194-2.266-5.2-1.185a11.65,11.65,0,0,0-.515,2.73v.155h0V60.7l-.051.567-.052.618v.824h-.1v.361a2.652,2.652,0,0,0-1.494.67,2.777,2.777,0,0,0-.979,1.957A2.905,2.905,0,0,0,73.156,68.686Z" transform="translate(-67.13 -41.021)"/>
        <path id="Path_560" data-name="Path 560" class="cls-4" d="M99.373,48.786a3.571,3.571,0,0,1-1.03,3.3,3.7,3.7,0,0,1-2.627,1.082s-14.68,1.082-16.792,5.666l-1.6,2.885a1.177,1.177,0,0,1-1.185.618h-.052a1.257,1.257,0,0,1-1.133-1.082C74.648,58.521,73,50.383,73,49.765a4.982,4.982,0,0,1,1.648-2.885A3.7,3.7,0,0,1,77.275,45.8H95.561A3.692,3.692,0,0,1,99.373,48.786Z" transform="translate(-68.106 -35.647)"/>
        <path id="Path_561" data-name="Path 561" class="cls-17" d="M110.967,92.433h2.318a.572.572,0,0,0,.567-.567h0a.572.572,0,0,0-.567-.567h-2.318a.572.572,0,0,0-.567.567h0A.572.572,0,0,0,110.967,92.433Z" transform="translate(-86.242 -57.711)"/>
        <path id="Path_562" data-name="Path 562" class="cls-17" d="M110.921,94.142h1.648a.737.737,0,0,0,.721-.721h0a.737.737,0,0,0-.721-.721h-1.648a.737.737,0,0,0-.721.721h0A.737.737,0,0,0,110.921,94.142Z" transform="translate(-86.145 -58.39)"/>
        <path id="Path_563" data-name="Path 563" class="cls-14" d="M115.642,84.8s-.155,1.082-1.7,1.03c-1.339-.052-1.442-.979-1.442-.979Z" transform="translate(-87.26 -54.56)"/>
        <ellipse id="Ellipse_38" data-name="Ellipse 38" class="cls-18" cx="1.597" cy="1.597" rx="1.597" ry="1.597" transform="translate(3.966 26.944)"/>
        <path id="Path_564" data-name="Path 564" class="cls-4" d="M101.054,42.547s4.481-.155,6.284,5.151c0,0,1.03-5.409-6.387-10.972S80.45,35.8,79.42,38.168a9.3,9.3,0,0,0-.927,4.224Z" transform="translate(-70.766 -29.974)"/>
        <g id="Group_342" data-name="Group 342" transform="translate(18.389 21.164)">
          <path id="Path_565" data-name="Path 565" class="cls-51" d="M104.351,68.3a5.768,5.768,0,0,0-5.151.412" transform="translate(-99.2 -67.519)"/>
          <path id="Path_566" data-name="Path 566" class="cls-51" d="M124.651,67.6a5.768,5.768,0,0,0-5.151.412" transform="translate(-109.044 -67.179)"/>
        </g>
        <path id="Path_567" data-name="Path 567" class="cls-19" d="M103.87,75.475h0a.682.682,0,0,1-.67-.67V73.57a.682.682,0,0,1,.67-.67h0a.682.682,0,0,1,.67.67v1.236A.682.682,0,0,1,103.87,75.475Z" transform="translate(-82.751 -48.789)"/>
        <path id="Path_568" data-name="Path 568" class="cls-19" d="M123.67,75.475h0a.682.682,0,0,1-.67-.67V73.57a.682.682,0,0,1,.67-.67h0a.682.682,0,0,1,.67.67v1.236A.682.682,0,0,1,123.67,75.475Z" transform="translate(-92.352 -48.789)"/>
      </g>
    </g>
  </g>
</svg>
