<svg xmlns="http://www.w3.org/2000/svg" viewBox="0 0 98.285 100">
  <defs>
    <style>
      .cls-1 {
        fill: #6a9923;
      }

      .cls-2 {
        fill: #618c20;
      }

      .cls-3 {
        fill: #88b337;
      }

      .cls-4 {
        fill: #595959;
      }
    </style>
  </defs>
  <g id="trees" transform="translate(-4.048 0.001)">
    <path id="Path_604" data-name="Path 604" class="cls-1" d="M58.276,45.775a13.544,13.544,0,0,0-5.985-11.246,11.851,11.851,0,0,0-9.266-19.255c-.169,0-.339.019-.508.025a11.862,11.862,0,1,0-22.706,0c-.169,0-.339-.025-.508-.025a11.851,11.851,0,0,0-9.266,19.255,13.556,13.556,0,0,0,0,22.493A11.851,11.851,0,0,0,19.3,76.276H43.026a11.851,11.851,0,0,0,9.266-19.255A13.544,13.544,0,0,0,58.276,45.775Z" transform="translate(0 0)"/>
    <path id="Path_605" data-name="Path 605" class="cls-2" d="M99.5,113.566a1.7,1.7,0,0,0-2.4-.034l-8.984,8.689V97.808a1.695,1.695,0,0,0-3.389,0v12.007l-7.7-7.7a1.695,1.695,0,0,0-2.4,2.4l10.094,10.094v23.167L77.46,130.5a1.695,1.695,0,0,0-2.4,2.4l9.671,9.671V174.06a1.695,1.695,0,0,0,3.389,0V126.936l11.353-10.969a1.7,1.7,0,0,0,.032-2.4l0,0Z" transform="translate(-55.265 -75.756)"/>
    <path id="Path_606" data-name="Path 606" class="cls-1" d="M266.276,45.775a13.544,13.544,0,0,0-5.985-11.246,11.851,11.851,0,0,0-9.266-19.255c-.169,0-.339.019-.508.025a11.862,11.862,0,1,0-22.706,0c-.169,0-.339-.025-.508-.025a11.851,11.851,0,0,0-9.266,19.255,13.556,13.556,0,0,0,0,22.493A11.851,11.851,0,0,0,227.3,76.276h23.723a11.851,11.851,0,0,0,9.266-19.255,13.544,13.544,0,0,0,5.985-11.246Z" transform="translate(-163.943 0)"/>
    <path id="Path_607" data-name="Path 607" class="cls-2" d="M307.488,113.555a1.7,1.7,0,0,0-2.4,0l-8.969,8.969V97.808a1.695,1.695,0,1,0-3.389,0v12.007l-7.7-7.7a1.695,1.695,0,0,0-2.4,2.4l10.094,10.094v23.167L285.46,130.5a1.695,1.695,0,0,0-2.4,2.4l9.671,9.671V174.06a1.695,1.695,0,0,0,3.389,0V127.2a1.635,1.635,0,0,0,.351-.234l11.014-11.014a1.7,1.7,0,0,0,0-2.4Z" transform="translate(-219.208 -75.756)"/>
    <path id="Path_608" data-name="Path 608" class="cls-3" d="M162.276,45.775a13.544,13.544,0,0,0-5.985-11.246,11.851,11.851,0,0,0-9.266-19.255c-.169,0-.339.019-.508.025a11.862,11.862,0,1,0-22.706,0c-.169,0-.339-.025-.508-.025a11.851,11.851,0,0,0-9.266,19.255,13.556,13.556,0,0,0,0,22.493A11.851,11.851,0,0,0,123.3,76.276h23.723a11.851,11.851,0,0,0,9.266-19.255A13.544,13.544,0,0,0,162.276,45.775Z" transform="translate(-81.971 0)"/>
    <path id="Path_609" data-name="Path 609" class="cls-1" d="M203.488,113.555a1.7,1.7,0,0,0-2.4,0l-8.969,8.969V97.808a1.695,1.695,0,1,0-3.389,0v12.007l-7.7-7.7a1.695,1.695,0,0,0-2.4,2.4l10.094,10.094v23.167L181.46,130.5a1.695,1.695,0,0,0-2.4,2.4l9.671,9.671V174.06a1.695,1.695,0,0,0,3.389,0V127.2a1.636,1.636,0,0,0,.351-.234l11.014-11.014a1.7,1.7,0,0,0,0-2.4Z" transform="translate(-137.236 -75.756)"/>
    <path id="Path_610" data-name="Path 610" class="cls-4" d="M151.374,459.5H93.761a1.695,1.695,0,1,1,0-3.389h57.613a1.695,1.695,0,0,1,0,3.389Z" transform="translate(-69.375 -359.503)"/>
  </g>
</svg>
